<svg width="31" height="31" viewBox="0 0 31 31" fill="none" xmlns="http://www.w3.org/2000/svg">
<path fill-rule="evenodd" clip-rule="evenodd" d="M4.89929 4.92202C-0.695067 10.5163 -0.695067 19.5865 4.89929 25.1808C10.4936 30.7751 19.5639 30.7751 25.1583 25.1808C30.7526 19.5865 30.7526 10.5163 25.1583 4.92202C19.5639 -0.672247 10.4936 -0.672247 4.89929 4.92202Z" fill="#D28F52"/>
<path fill-rule="evenodd" clip-rule="evenodd" d="M8.42167 8.44309C3.42838 13.4363 2.89598 21.1966 6.81588 26.7846C12.4044 30.7044 20.1648 30.1721 25.1576 25.1788C30.1509 20.1861 30.6837 12.4258 26.7633 6.83735C21.1753 2.91751 13.4149 3.44993 8.42167 8.44309Z" fill="#D28F52"/>
<path opacity="0.3" fill-rule="evenodd" clip-rule="evenodd" d="M22.9342 3.22876C24.4368 5.49483 25.3139 8.21121 25.3139 11.134C25.3139 19.0456 18.9003 25.4592 10.9887 25.4592C8.06624 25.4592 5.34943 24.582 3.08371 23.079C5.64885 26.9473 10.0401 29.4993 15.0288 29.4993C22.9405 29.4993 29.3541 23.0858 29.3541 15.1742C29.3541 10.185 26.8025 5.79381 22.9342 3.22876Z" fill="#010202"/>
<path fill-rule="evenodd" clip-rule="evenodd" d="M15.0284 1.40596C11.5328 1.40596 8.03666 2.73655 5.37501 5.39815C0.0522855 10.7208 0.0522855 19.3816 5.37501 24.7043C10.6983 30.0275 19.3587 30.0275 24.6819 24.7043C30.0046 19.3816 30.0046 10.7208 24.6819 5.39815C22.0203 2.73655 18.5241 1.40596 15.0284 1.40596ZM15.0284 30.0428C11.1875 30.0428 7.34712 28.5806 4.42288 25.6564C-1.42514 19.809 -1.42514 10.2935 4.42288 4.44552C10.2709 -1.40241 19.786 -1.40241 25.6341 4.44552C31.4821 10.2935 31.4821 19.809 25.6341 25.6564C22.7098 28.5806 18.8694 30.0427 15.0284 30.0427" fill="#2E2E30"/>
<path fill-rule="evenodd" clip-rule="evenodd" d="M7.3003 26.3033C12.7222 30.0377 20.0135 29.3738 24.6822 24.7056C29.3509 20.0365 30.0153 12.7453 26.2799 7.32385C20.8575 3.58888 13.5662 4.25329 8.89845 8.92196C4.22926 13.5906 3.56532 20.8817 7.3003 26.3033ZM15.0283 30.0597C12.039 30.0597 9.03356 29.165 6.42988 27.3384C6.3658 27.2936 6.31002 27.2379 6.2651 27.1736C2.07856 21.2059 2.78555 13.1295 7.94579 7.96933C13.1057 2.81006 21.1825 2.10258 27.1508 6.28863C27.2145 6.33353 27.2702 6.3892 27.3151 6.45339C31.5016 12.4207 30.7946 20.4975 25.6344 25.6577C22.7258 28.5662 18.8904 30.0597 15.0283 30.0597Z" fill="#2E2E30"/>
<path fill-rule="evenodd" clip-rule="evenodd" d="M25.1583 25.8548C24.9799 25.8552 24.8086 25.7843 24.682 25.6578L4.42337 5.39887C4.16037 5.13579 4.16037 4.70932 4.42337 4.44672C4.68602 4.18364 5.1125 4.18364 5.37562 4.44672L25.6346 24.7051C25.697 24.7674 25.7465 24.8416 25.7804 24.9234C25.8142 25.0051 25.8316 25.0928 25.8316 25.1813C25.8316 25.2699 25.8142 25.3576 25.7804 25.4393C25.7465 25.5211 25.697 25.5953 25.6346 25.6576C25.508 25.7842 25.3367 25.8551 25.1583 25.8547M14.5575 30.0392C14.426 30.0392 14.2936 30.001 14.1773 29.9211C11.1785 27.8655 10.217 26.1158 8.1268 18.9085C6.20909 12.2965 1.72847 12.1664 1.53861 12.1641C1.16822 12.1596 0.869271 11.8571 0.871503 11.4863C0.874205 11.1164 1.17316 10.8174 1.54307 10.8174H1.54354C1.77335 10.8178 7.20927 10.9094 9.42012 18.5332C11.5399 25.8428 12.4122 27.0787 14.9386 28.8105C15.2453 29.0206 15.3238 29.4399 15.1133 29.7465C14.9826 29.9369 14.772 30.0392 14.5575 30.0392ZM29.3431 15.2546C29.1286 15.2546 28.918 15.1522 28.7874 14.9619C27.0555 12.4354 25.8197 11.5632 18.51 9.44342C10.8861 7.23208 10.794 1.79719 10.794 1.56688C10.7936 1.19519 11.0953 0.89354 11.467 0.893066H11.4674C11.8378 0.893066 12.139 1.19253 12.1408 1.56286C12.1435 1.76264 12.2809 6.2346 18.8852 8.15016C26.093 10.2402 27.8424 11.2018 29.898 14.2005C30.1085 14.5071 30.03 14.9264 29.7234 15.1365C29.6114 15.2136 29.4788 15.2548 29.3431 15.2546Z" fill="#2E2E30"/>
</svg>
