<svg width="31" height="31" viewBox="0 0 31 31" fill="none" xmlns="http://www.w3.org/2000/svg">
    <path fill-rule="evenodd" clip-rule="evenodd" d="M15.4163 29.3966C23.3287 29.3966 29.743 23.0818 29.743 15.2921C29.743 7.50231 23.3287 1.1875 15.4163 1.1875C7.50379 1.1875 1.08949 7.50231 1.08949 15.2921C1.08949 23.0818 7.50379 29.3966 15.4163 29.3966Z" fill="#FEFEFE"/>
    <path fill-rule="evenodd" clip-rule="evenodd" d="M21.1042 2.34473L22.0246 7.01664L27.4736 7.67787C25.9431 5.33307 23.7284 3.46386 21.1042 2.34473ZM27.361 23.0775C28.865 20.8459 29.7427 18.17 29.7427 15.2913C29.7427 14.9885 29.7297 14.6893 29.7108 14.3914L25.4807 17.4354L27.361 23.0775ZM20.5899 28.4437L15.5166 24.9847L10.6872 28.6055C12.1683 29.1156 13.7585 29.3958 15.4161 29.3958C17.2411 29.3958 18.9844 29.0563 20.5899 28.4437Z" fill="#4C4C4C"/>
    <path opacity="0.3" fill-rule="evenodd" clip-rule="evenodd" d="M23.4638 3.59595C24.9665 5.82715 25.8437 8.50167 25.8437 11.3795C25.8437 19.1693 19.4294 25.4841 11.5169 25.4841C8.59422 25.4841 5.87711 24.6204 3.61121 23.1406C6.17657 26.9493 10.5683 29.4621 15.5576 29.4621C23.4701 29.4621 29.8844 23.1473 29.8844 15.3575C29.8844 10.4451 27.3325 6.12152 23.4638 3.59595Z" fill="#010202"/>
    <mask id="mask0_471_27096" style="mask-type:luminance" maskUnits="userSpaceOnUse" x="0" y="0" width="31" height="31">
    <path d="M0.416367 30.059H30.4163V0.523926H0.416367V30.059Z" fill="#2E2E30"/>
    </mask>
    <g mask="url(#mask0_471_27096)">
    <path fill-rule="evenodd" clip-rule="evenodd" d="M15.4163 1.85016C7.88772 1.85016 1.763 7.87989 1.763 15.2917C1.763 22.7032 7.88772 28.7333 15.4163 28.7333C22.945 28.7333 29.0692 22.7032 29.0692 15.2917C29.0692 7.87989 22.945 1.85016 15.4163 1.85016ZM15.4163 30.0593C7.14514 30.0593 0.416122 23.4342 0.416122 15.2917C0.416122 7.14883 7.14514 0.52417 15.4163 0.52417C23.6875 0.52417 30.4161 7.14883 30.4161 15.2917C30.4161 23.4342 23.6875 30.0593 15.4163 30.0593Z" fill="#2E2E30"/>
    </g>
    <path fill-rule="evenodd" clip-rule="evenodd" d="M15.4167 20.5299L9.82216 16.5285L11.9592 10.0537H18.8741L21.0112 16.5285L15.4167 20.5299Z" fill="#4C4C4C"/>
    <path fill-rule="evenodd" clip-rule="evenodd" d="M10.6142 16.2742L15.4167 19.7094L20.2197 16.2742L18.3852 10.7161H12.4482L10.6142 16.2742ZM15.4167 21.1923C15.278 21.1923 15.1388 21.1499 15.0207 21.0659L9.42623 17.0641C9.19053 16.8953 9.09176 16.596 9.182 16.3224L11.3182 9.84805C11.4088 9.57489 11.6674 9.39014 11.9588 9.39014H18.8742C19.166 9.39014 19.4246 9.57489 19.5148 9.84805L21.6519 16.3224C21.7417 16.596 21.6429 16.8948 21.4072 17.0641L15.8127 21.0659C15.6946 21.1499 15.5559 21.1923 15.4167 21.1923Z" fill="#2E2E30"/>
    <path fill-rule="evenodd" clip-rule="evenodd" d="M10.5611 2.01831C7.71919 3.02606 5.29571 4.89306 3.61121 7.30106L9.44096 6.79807L10.5611 2.01831Z" fill="#4C4C4C"/>
    <path fill-rule="evenodd" clip-rule="evenodd" d="M9.61101 3.12599C7.8897 3.92689 6.33719 5.08846 5.08549 6.50992L8.89492 6.18152L9.61101 3.12599ZM3.61155 7.96586C3.37316 7.96586 3.15047 7.84122 3.0297 7.63657C2.89816 7.41469 2.90893 7.138 3.05664 6.92672C4.85293 4.36005 7.36935 2.44753 10.3329 1.39646C10.5646 1.3138 10.8241 1.36286 11.0086 1.52419C11.1927 1.68552 11.2731 1.9326 11.2178 2.16907L10.0977 6.94882C10.0317 7.22861 9.7906 7.43502 9.50012 7.46022L3.67037 7.96321C3.65061 7.96498 3.63086 7.96586 3.61155 7.96586ZM22.5927 6.41874L26.0259 6.8351C24.9183 5.48657 23.5629 4.36654 22.0234 3.52852L22.5927 6.41874ZM27.4742 8.34231C27.4473 8.34231 27.4195 8.34054 27.3916 8.33701L21.9426 7.67578C21.653 7.64086 21.4196 7.42605 21.3639 7.14405L20.4435 2.47214C20.3959 2.23037 20.4884 1.98285 20.6828 1.82904C20.8781 1.67522 21.143 1.63942 21.3724 1.73755C24.1138 2.90663 26.4196 4.83727 28.0408 7.32085C28.1818 7.53699 28.1832 7.81412 28.0444 8.03203C27.9201 8.22651 27.7041 8.34231 27.4742 8.34231Z" fill="#2E2E30"/>
    <path fill-rule="evenodd" clip-rule="evenodd" d="M12.1491 28.3434C14.4244 28.8959 16.8488 28.8579 19.1004 28.2356L15.5352 25.8042L12.1491 28.3434ZM15.4162 30.0593C13.725 30.0593 12.0589 29.7808 10.4651 29.2319C10.2311 29.151 10.061 28.9508 10.0224 28.7094C9.98332 28.4685 10.0821 28.2263 10.2792 28.0782L15.1082 24.4574C15.3403 24.2828 15.6595 24.2766 15.8997 24.4397L20.9734 27.8992C21.1781 28.0394 21.2877 28.2789 21.2585 28.5225C21.2293 28.766 21.0655 28.9742 20.8333 29.0626C19.1004 29.7238 17.278 30.0593 15.4162 30.0593Z" fill="#2E2E30"/>
    <path fill-rule="evenodd" clip-rule="evenodd" d="M5.35147 17.4359L1.12137 14.3918C1.10206 14.6898 1.08949 14.989 1.08949 15.2918C1.08949 18.1705 1.96721 20.8463 3.47123 23.078L5.35147 17.4359Z" fill="#4C4C4C"/>
    <mask id="mask1_471_27096" style="mask-type:luminance" maskUnits="userSpaceOnUse" x="0" y="13" width="7" height="11">
    <path d="M0.41626 13.7283V23.7402H6.02512V13.7283H0.41626Z" fill="#2E2E30"/>
    </mask>
    <g mask="url(#mask1_471_27096)">
    <path fill-rule="evenodd" clip-rule="evenodd" d="M1.76875 15.6782C1.82756 17.7131 2.34925 19.6889 3.29521 21.4798L4.55949 17.6866L1.76875 15.6782ZM3.47165 23.7402C3.24807 23.7402 3.03616 23.6306 2.91045 23.4436C1.27848 21.0233 0.416031 18.2042 0.416031 15.291C0.416031 14.9745 0.429949 14.6616 0.449703 14.3504C0.464968 14.1087 0.613124 13.8943 0.835809 13.7913C1.05715 13.6883 1.32024 13.7126 1.51868 13.8563L5.74878 16.9003C5.98493 17.0696 6.08236 17.3693 5.99122 17.642L4.11142 23.2841C4.03106 23.5254 3.81735 23.7 3.5619 23.7345C3.53182 23.738 3.50129 23.7402 3.47165 23.7402Z" fill="#2E2E30"/>
    </g>
    <path fill-rule="evenodd" clip-rule="evenodd" d="M11.959 10.0545L9.58531 6.99194L11.959 10.0545Z" fill="#FEFEFE"/>
    <path fill-rule="evenodd" clip-rule="evenodd" d="M11.9591 10.7168C11.7562 10.7168 11.5559 10.6271 11.4235 10.4561L9.05028 7.39347C8.82445 7.10219 8.88147 6.68627 9.17688 6.46439C9.47365 6.24207 9.89522 6.2982 10.1206 6.58948L12.4938 9.65163C12.7196 9.94291 12.6626 10.3588 12.3672 10.5807C12.2451 10.6726 12.1014 10.7168 11.9591 10.7168Z" fill="#2E2E30"/>
    <path fill-rule="evenodd" clip-rule="evenodd" d="M18.874 10.0534L22.0248 7.01733L18.874 10.0534Z" fill="#FEFEFE"/>
    <path fill-rule="evenodd" clip-rule="evenodd" d="M18.8743 10.7161C18.6992 10.7161 18.5251 10.6498 18.3931 10.5167C18.1331 10.2555 18.1372 9.83563 18.4034 9.57927L21.5542 6.54319C21.8191 6.28683 22.246 6.29125 22.5064 6.55292C22.7664 6.81458 22.7619 7.23448 22.4957 7.49039L19.3453 10.5269C19.2147 10.6529 19.0445 10.7161 18.8743 10.7161Z" fill="#2E2E30"/>
    <path fill-rule="evenodd" clip-rule="evenodd" d="M9.82141 16.5269L5.35156 17.4343L9.82141 16.5269Z" fill="#FEFEFE"/>
    <path fill-rule="evenodd" clip-rule="evenodd" d="M5.35105 18.0996C5.03857 18.0996 4.75797 17.8839 4.69243 17.5705C4.617 17.2116 4.85181 16.8611 5.21591 16.7873L9.68621 15.8799C10.0472 15.8047 10.4068 16.0363 10.4818 16.3952C10.5572 16.7537 10.3224 17.1042 9.95828 17.178L5.48798 18.0859C5.44219 18.0952 5.3964 18.0996 5.35105 18.0996Z" fill="#2E2E30"/>
    <path fill-rule="evenodd" clip-rule="evenodd" d="M26.2727 17.6858L27.537 21.479C28.4829 19.6884 29.0046 17.7127 29.0634 15.6778L26.2727 17.6858ZM27.361 23.7398C27.3309 23.7398 27.3008 23.7376 27.2707 23.734C27.0148 23.6996 26.8016 23.525 26.7212 23.2837L24.841 17.6416C24.7494 17.3688 24.8473 17.0692 25.0834 16.8999L29.3131 13.8559C29.512 13.7126 29.7746 13.6888 29.9959 13.7904C30.2186 13.8934 30.3668 14.1073 30.3825 14.3491C30.4049 14.6952 30.4162 15.0037 30.4162 15.2906C30.4162 18.2033 29.5537 21.0224 27.9222 23.4432C27.7965 23.6302 27.5846 23.7398 27.361 23.7398Z" fill="#2E2E30"/>
    <path fill-rule="evenodd" clip-rule="evenodd" d="M21.0109 16.5269L25.4807 17.4343L21.0109 16.5269Z" fill="#FEFEFE"/>
    <path fill-rule="evenodd" clip-rule="evenodd" d="M25.482 18.0995C25.4367 18.0995 25.3909 18.095 25.3451 18.0858L20.8753 17.1779C20.5112 17.1041 20.2763 16.7536 20.3518 16.3951C20.4268 16.0362 20.7859 15.8051 21.1473 15.8797L25.6172 16.7872C25.9813 16.861 26.2161 17.2115 26.1407 17.5704C26.0751 17.8838 25.7945 18.0995 25.482 18.0995Z" fill="#2E2E30"/>
    <path fill-rule="evenodd" clip-rule="evenodd" d="M15.4167 25.6481C15.045 25.6481 14.7433 25.351 14.7433 24.9851V20.5302C14.7433 20.1642 15.045 19.8672 15.4167 19.8672C15.7885 19.8672 16.0902 20.1642 16.0902 20.5302V24.9851C16.0902 25.351 15.7885 25.6481 15.4167 25.6481Z" fill="#2E2E30"/>
    </svg>
    