<svg width="93" height="93" viewBox="0 0 93 93" fill="none" xmlns="http://www.w3.org/2000/svg">
    <path d="M46.5 0.865234C21.1629 0.865234 0.432617 21.5956 0.432617 46.9326C0.432617 72.2697 21.1629 93 46.5 93C71.8371 93 92.5674 72.2697 92.5674 46.9326C92.5674 21.5956 71.8371 0.865234 46.5 0.865234ZM65.8483 39.1012L43.736 61.2135C41.8933 63.0562 39.1292 63.0562 37.2865 61.2135L27.1517 51.0787C25.309 49.236 25.309 46.4719 27.1517 44.6292C28.9944 42.7866 31.7584 42.7866 33.6011 44.6292L40.5112 51.5394L59.3989 32.6517C61.2416 30.809 64.0056 30.809 65.8483 32.6517C67.691 34.4944 67.691 37.2585 65.8483 39.1012Z" fill="#00A32E"/>
    </svg>
    