<svg width="91" height="61" viewBox="0 0 91 61" fill="none" xmlns="http://www.w3.org/2000/svg">
    <path fill-rule="evenodd" clip-rule="evenodd" d="M18.6478 47.1249C17.6621 46.9726 16.6143 46.8872 15.5 46.8872C7.29286 46.8872 2.70928 51.5511 0.95214 53.8749C0.66714 54.2742 0.515008 54.7634 0.515008 55.2688C0.515008 55.2826 0.514993 55.2965 0.51285 55.308C0.499993 56.1619 0.5 57.2926 0.5 58.4257C0.5 59.6996 1.46 60.7334 2.64286 60.7334H18.0114C17.7693 59.9996 17.6429 59.2196 17.6429 58.4257C17.6429 55.7996 17.6429 52.6703 17.6514 50.8219C17.6514 49.5065 18.0007 48.2257 18.6478 47.1249ZM66.9286 60.7334H24.0714C23.5036 60.7334 22.9571 60.4911 22.5564 60.0572C22.1536 59.6257 21.9286 59.0372 21.9286 58.4257C21.9286 55.8065 21.9286 52.6911 21.9371 50.8357C21.9371 50.8311 21.9371 50.8265 21.9371 50.8219C21.9371 50.2911 22.1086 49.7788 22.4193 49.368C25.0786 46.098 33.1143 37.6565 45.5 37.6565C59.5186 37.6565 66.5579 46.0819 68.7114 49.2596C68.9493 49.6496 69.0714 50.0903 69.0714 50.5403V58.4257C69.0714 59.0372 68.8464 59.6257 68.4436 60.0572C68.0429 60.4911 67.4964 60.7334 66.9286 60.7334ZM72.9886 60.7334H88.3571C89.54 60.7334 90.5 59.6996 90.5 58.4257V55.2665C90.5 54.7565 90.3436 54.2626 90.0564 53.8588C88.2907 51.5511 83.705 46.8872 75.5 46.8872C74.4436 46.8872 73.4472 46.9634 72.5086 47.1019C73.0636 48.1473 73.3571 49.3334 73.3571 50.5449V58.4257C73.3571 59.2196 73.2307 59.9996 72.9886 60.7334ZM15.5 19.1949C9.58571 19.1949 4.78571 24.3642 4.78571 30.7334C4.78571 37.1026 9.58571 42.2719 15.5 42.2719C21.4143 42.2719 26.2143 37.1026 26.2143 30.7334C26.2143 24.3642 21.4143 19.1949 15.5 19.1949ZM75.5 19.1949C69.5857 19.1949 64.7857 24.3642 64.7857 30.7334C64.7857 37.1026 69.5857 42.2719 75.5 42.2719C81.4143 42.2719 86.2143 37.1026 86.2143 30.7334C86.2143 24.3642 81.4143 19.1949 75.5 19.1949ZM45.5 0.733398C37.2221 0.733398 30.5 7.97263 30.5 16.8872C30.5 25.8019 37.2221 33.0411 45.5 33.0411C53.7779 33.0411 60.5 25.8019 60.5 16.8872C60.5 7.97263 53.7779 0.733398 45.5 0.733398Z" fill="#00B0F0"/>
    </svg>
    