<svg width="68" height="64" viewBox="0 0 68 64" fill="none" xmlns="http://www.w3.org/2000/svg">
<path d="M57.4634 47C54.8285 51.5585 51.0418 55.344 46.483 57.9767C41.9242 60.6094 36.7537 61.9969 31.4897 62C15.0371 62 1.5 48.4583 1.5 32C1.5 15.5417 15.0397 2 31.4897 2C47.9397 2 61.4795 15.5417 61.4795 32" stroke="#00B0F0" stroke-width="3" stroke-miterlimit="10"/>
<path d="M31.4897 17.6522C33.2188 17.6522 34.8771 18.3393 36.0997 19.5623C37.3224 20.7854 38.0092 22.4442 38.0092 24.1739V33.3043H24.9702V24.1739C24.9702 22.4442 25.6571 20.7854 26.8797 19.5623C28.1024 18.3393 29.7606 17.6522 31.4897 17.6522V17.6522Z" stroke="#00B0F0" stroke-width="2" stroke-miterlimit="10"/>
<path d="M43.225 48.9565H19.7548C19.0631 48.9565 18.3998 48.6816 17.9108 48.1924C17.4217 47.7032 17.147 47.0397 17.147 46.3478V35.913C17.147 34.5293 17.6965 33.2022 18.6746 32.2238C19.6527 31.2453 20.9793 30.6956 22.3626 30.6956H40.6172C42.0005 30.6956 43.3271 31.2453 44.3052 32.2238C45.2833 33.2022 45.8328 34.5293 45.8328 35.913V46.3478C45.8328 47.0397 45.5581 47.7032 45.069 48.1924C44.5799 48.6816 43.9166 48.9565 43.225 48.9565ZM66.5127 30.6956C66.6871 30.6962 66.8583 30.7429 67.0089 30.8309C67.1595 30.9189 67.2843 31.0451 67.3705 31.1967C67.4568 31.3484 67.5015 31.5201 67.5001 31.6946C67.4988 31.8691 67.4514 32.0401 67.3628 32.1904L62.3324 40.6452C62.2444 40.7922 62.1198 40.9138 61.9708 40.9983C61.8218 41.0827 61.6535 41.1271 61.4822 41.1271C61.311 41.1271 61.1426 41.0827 60.9936 40.9983C60.8447 40.9138 60.7201 40.7922 60.6321 40.6452L55.6016 32.1904C55.5123 32.0404 55.4643 31.8695 55.4624 31.6949C55.4605 31.5203 55.5049 31.3484 55.591 31.1965C55.6771 31.0447 55.8018 30.9183 55.9526 30.8304C56.1033 30.7424 56.2747 30.6959 56.4492 30.6956H66.5127Z" fill="#00B0F0"/>
</svg>
