<svg width="227" height="29" viewBox="0 0 227 29" fill="none" xmlns="http://www.w3.org/2000/svg">
    <path d="M74.3335 3.73194L72.1312 1.5296C71.8214 1.21985 71.3192 1.21985 71.0095 1.5296L62.159 10.38C61.8493 10.6898 61.8493 11.192 62.159 11.5017L64.3614 13.7041C64.6711 14.0138 65.1733 14.0138 65.4831 13.7041L74.3335 4.85364C74.6432 4.54389 74.6432 4.04169 74.3335 3.73194Z" fill="#00B0F0"/>
    <path d="M78.7769 13.7046L80.9792 11.5023C81.2889 11.1925 81.2889 10.6903 80.9792 10.3806L72.1288 1.53014C71.819 1.22038 71.3168 1.22039 71.0071 1.53014L68.8047 3.73247C68.495 4.04222 68.495 4.54443 68.8047 4.85418L77.6551 13.7046C77.9649 14.0143 78.4671 14.0143 78.7769 13.7046Z" fill="#00B0F0"/>
    <path d="M75.4517 23.6772L77.654 21.4749C77.9637 21.1652 77.9637 20.663 77.654 20.3532L65.4775 8.1767C65.1677 7.86695 64.6655 7.86695 64.3558 8.1767L62.1534 10.379C61.8437 10.6888 61.8437 11.191 62.1534 11.5007L74.3299 23.6772C74.6397 23.987 75.1419 23.987 75.4517 23.6772Z" fill="#00B0F0"/>
    <path d="M77.6548 20.353L75.4525 18.1507C75.1427 17.8409 74.6405 17.8409 74.3307 18.1507L67.9723 24.5091C67.6626 24.8189 67.6626 25.3211 67.9723 25.6308L70.1747 27.8331C70.4844 28.1429 70.9866 28.1429 71.2964 27.8331L77.6548 21.4747C77.9645 21.165 77.9645 20.6628 77.6548 20.353Z" fill="#00B0F0"/>
    <path d="M65.189 19.5171L62.9866 17.3148C62.6769 17.005 62.1747 17.005 61.8649 17.3148L56.3386 22.8411C56.0288 23.1509 56.0288 23.6531 56.3386 23.9628L58.5409 26.1652C58.8506 26.4749 59.3528 26.4749 59.6626 26.1652L65.189 20.6388C65.4987 20.329 65.4987 19.8268 65.189 19.5171Z" fill="black"/>
    <path d="M83.4702 7.88428L81.2679 5.68195C80.9581 5.3722 80.4559 5.3722 80.1462 5.68195L75.4498 10.3783C75.14 10.6881 75.14 11.1903 75.4498 11.5001L77.6521 13.7024C77.9619 14.0121 78.4641 14.0121 78.7738 13.7024L83.4702 9.00599C83.78 8.69624 83.78 8.19403 83.4702 7.88428Z" fill="#00B0F0"/>
    <path d="M6.01923 22.9136V9.80165H0.847656V6.75391H14.9271V9.80165H9.75846V22.9136H6.01923Z" fill="black"/>
    <path d="M21.5507 22.9136H17.8115V6.75391H21.5507V22.9136ZM29.1687 16.2865H21.2747V13.1254H29.1687V16.2865ZM28.8781 6.75391H32.6319V22.9136H28.8926L28.8781 6.75391Z" fill="black"/>
    <path d="M41.0588 19.9124H49.8533V22.9136H37.3428V6.75391H49.5454V9.75516H41.0588V19.9124ZM40.7682 13.2649H48.5488V16.1702H40.7798L40.7682 13.2649Z" fill="black"/>
    <path d="M90.9753 22.9136V9.80165H85.8066V6.75391H99.8861V9.80165H94.7145V22.9136H90.9753Z" fill="#00B0F0"/>
    <path d="M99.8398 22.9136L107.042 6.75391H110.735L117.961 22.9136H114.036L108.126 8.64821H109.605L103.672 22.9136H99.8398ZM103.443 19.4504L104.433 16.6119H112.743L113.76 19.4504H103.443Z" fill="#00B0F0"/>
    <path d="M123.062 22.9136V9.80165H117.891V6.75391H131.97V9.80165H126.801V22.9136H123.062Z" fill="#00B0F0"/>
    <path d="M134.855 22.9136V6.75391H142.749C144.779 6.75391 146.308 7.14129 147.334 7.91606C147.82 8.25891 148.214 8.71595 148.481 9.24692C148.749 9.77789 148.882 10.3665 148.868 10.9609C148.887 11.7421 148.669 12.5106 148.243 13.1661C147.821 13.8002 147.229 14.3034 146.535 14.6188C145.751 14.9684 144.9 15.141 144.042 15.1243L144.481 14.1801C145.406 14.1633 146.324 14.3312 147.183 14.674C147.924 14.9641 148.563 15.4652 149.022 16.115C149.479 16.8215 149.709 17.6507 149.682 18.4916C149.705 19.1266 149.567 19.7572 149.281 20.3243C148.994 20.8914 148.568 21.3764 148.043 21.734C146.951 22.5088 145.342 22.8962 143.217 22.8962L134.855 22.9136ZM138.563 20.0954H142.921C143.891 20.0954 144.623 19.9385 145.126 19.6247C145.375 19.4629 145.576 19.237 145.708 18.9706C145.84 18.7043 145.898 18.4074 145.876 18.111C145.894 17.8156 145.835 17.5205 145.703 17.2553C145.571 16.9901 145.372 16.7642 145.126 16.6002C144.623 16.269 143.891 16.1034 142.921 16.1034H138.272V13.3782H142.267C143.174 13.3782 143.871 13.2213 144.353 12.9075C144.593 12.7519 144.786 12.5353 144.915 12.28C145.043 12.0247 145.101 11.7399 145.082 11.4548C145.098 11.178 145.041 10.902 144.916 10.6543C144.792 10.4065 144.605 10.1957 144.373 10.0428C143.891 9.72901 143.194 9.57212 142.287 9.57212H138.563V20.0954Z" fill="#00B0F0"/>
    <path d="M161.239 22.9136C160.07 22.9243 158.909 22.7195 157.814 22.3093C156.802 21.9315 155.876 21.3546 155.091 20.6125C154.327 19.8885 153.719 19.0154 153.305 18.0471C152.874 17.0312 152.657 15.9372 152.668 14.8337C152.657 13.7302 152.874 12.6363 153.305 11.6204C153.72 10.65 154.332 9.77573 155.1 9.05203C155.89 8.31548 156.815 7.74011 157.825 7.35819C160.019 6.55248 162.428 6.55248 164.621 7.35819C165.625 7.74045 166.544 8.31593 167.326 9.05203C168.494 10.1999 169.291 11.6725 169.611 13.2786C169.932 14.8847 169.762 16.5502 169.124 18.0587C168.707 19.0279 168.095 19.901 167.326 20.6242C166.544 21.356 165.628 21.9283 164.627 22.3093C163.545 22.7202 162.396 22.9251 161.239 22.9136ZM161.225 19.8339C161.886 19.841 162.542 19.7196 163.157 19.4765C163.74 19.2396 164.269 18.8867 164.711 18.4393C165.16 17.9871 165.513 17.4484 165.748 16.8559C166.242 15.5449 166.242 14.0993 165.748 12.7883C165.51 12.2018 165.157 11.6685 164.711 11.2194C164.272 10.7723 163.745 10.422 163.163 10.1909C162.545 9.94906 161.888 9.82775 161.225 9.83357C160.565 9.82617 159.909 9.94755 159.296 10.1909C158.709 10.4277 158.177 10.7817 157.731 11.2313C157.286 11.6809 156.938 12.2167 156.707 12.8058C156.215 14.111 156.215 15.5507 156.707 16.8559C156.94 17.4482 157.291 17.9869 157.738 18.4393C158.178 18.8871 158.706 19.2375 159.29 19.4678C159.905 19.7127 160.562 19.8369 161.225 19.8339Z" fill="#00B0F0"/>
    <path d="M171.394 22.9136L178.599 6.75391H182.292L189.517 22.9136H185.592L179.683 8.64821H181.161L175.229 22.9136H171.394ZM174.996 19.4504L175.99 16.6119H184.299L185.316 19.4504H174.996Z" fill="#00B0F0"/>
    <path d="M192.079 22.9164V6.75669H199.072C200.355 6.7249 201.629 6.96554 202.812 7.4627C203.802 7.88691 204.645 8.59448 205.235 9.49646C205.821 10.4349 206.118 11.5252 206.089 12.6314C206.118 13.7284 205.821 14.8094 205.235 15.7372C204.641 16.6264 203.798 17.3207 202.812 17.7332C201.627 18.2211 200.353 18.4566 199.072 18.4247H194.154L195.815 16.7861V22.9164H192.079ZM195.815 17.1899L194.154 15.4467H198.863C200.025 15.4467 200.887 15.1958 201.449 14.6942C201.735 14.4347 201.96 14.1152 202.107 13.7585C202.255 13.4019 202.322 13.0169 202.303 12.6314C202.324 12.2434 202.258 11.8556 202.11 11.4963C201.963 11.137 201.737 10.8151 201.449 10.554C200.879 10.064 200.018 9.81799 198.863 9.81606H194.154L195.815 8.03796V17.1899ZM202.35 22.9164L198.311 17.0534H202.303L206.388 22.9164H202.35Z" fill="#00B0F0"/>
    <path d="M209.922 22.9161V6.75634H217.261C218.868 6.72124 220.461 7.06565 221.909 7.76161C223.197 8.38408 224.284 9.35548 225.047 10.5653C225.826 11.851 226.22 13.3334 226.18 14.8362C226.216 16.3349 225.823 17.8126 225.047 19.0955C224.287 20.3108 223.2 21.2867 221.909 21.9108C220.46 22.6054 218.868 22.9498 217.261 22.9161H209.922ZM213.661 19.8451H217.075C218.046 19.8694 219.009 19.6591 219.882 19.232C220.653 18.8426 221.294 18.2368 221.726 17.4888C222.18 16.6786 222.408 15.7615 222.386 14.8333C222.41 13.9011 222.183 12.9795 221.726 12.1662C221.292 11.4194 220.652 10.814 219.882 10.4229C219.008 9.99816 218.046 9.78893 217.075 9.8128H213.661V19.8451Z" fill="#00B0F0"/>
    </svg>
    