<svg width="77" height="75" viewBox="0 0 77 75" fill="none" xmlns="http://www.w3.org/2000/svg">
    <path d="M50.4426 7.73953L44.4976 1.7945C43.6615 0.95835 42.3058 0.95835 41.4697 1.7945L17.5786 25.6856C16.7424 26.5217 16.7424 27.8774 17.5786 28.7135L23.5236 34.6586C24.3598 35.4947 25.7154 35.4947 26.5516 34.6586L50.4426 10.7675C51.2788 9.93133 51.2788 8.57568 50.4426 7.73953Z" fill="#00B0F0"/>
    <path d="M62.4475 34.6575L68.3925 28.7125C69.2287 27.8763 69.2287 26.5207 68.3925 25.6845L44.5014 1.79346C43.6653 0.957306 42.3096 0.957308 41.4735 1.79346L35.5284 7.73849C34.6923 8.57464 34.6923 9.93029 35.5284 10.7664L59.4195 34.6575C60.2557 35.4937 61.6113 35.4937 62.4475 34.6575Z" fill="#00B0F0"/>
    <path d="M53.4714 61.5771L59.4164 55.6321C60.2526 54.7959 60.2526 53.4402 59.4164 52.6041L26.5468 19.7345C25.7106 18.8983 24.355 18.8983 23.5188 19.7344L17.5738 25.6795C16.7376 26.5156 16.7377 27.8713 17.5738 28.7074L50.4434 61.5771C51.2796 62.4132 52.6353 62.4132 53.4714 61.5771Z" fill="#00B0F0"/>
    <path d="M59.4158 52.6075L53.4708 46.6625C52.6346 45.8263 51.279 45.8263 50.4428 46.6625L33.2787 63.8266C32.4426 64.6627 32.4425 66.0184 33.2787 66.8545L39.2237 72.7996C40.0599 73.6357 41.4155 73.6357 42.2517 72.7995L59.4158 55.6354C60.2519 54.7993 60.2519 53.4436 59.4158 52.6075Z" fill="#00B0F0"/>
    <path d="M25.7713 50.3647L19.8262 44.4197C18.9901 43.5835 17.6344 43.5836 16.7983 44.4197L1.8802 59.3378C1.04405 60.1739 1.04403 61.5296 1.88019 62.3657L7.82521 68.3108C8.66136 69.1469 10.017 69.1469 10.8532 68.3107L25.7712 53.3927C26.6074 52.5565 26.6074 51.2009 25.7713 50.3647Z" fill="black"/>
    <path d="M75.1199 18.9627L69.1749 13.0177C68.3387 12.1815 66.983 12.1816 66.1469 13.0177L53.4693 25.6953C52.6332 26.5314 52.6332 27.8871 53.4693 28.7233L59.4143 34.6683C60.2505 35.5044 61.6062 35.5044 62.4423 34.6683L75.1199 21.9907C75.956 21.1545 75.956 19.7989 75.1199 18.9627Z" fill="#00B0F0"/>
    </svg>
    