<svg width="53" height="53" viewBox="0 0 53 53" fill="none" xmlns="http://www.w3.org/2000/svg">
<path d="M34.3 14.2007V3.04672C34.3 1.61672 33.13 0.446724 31.7 0.446724H21.3C19.87 0.446724 18.7 1.61672 18.7 3.04672V14.2007C18.7 14.5387 18.83 14.8767 19.09 15.1107L25.59 21.6107C26.11 22.1307 26.916 22.1307 27.436 21.6107L33.936 15.1107C34.17 14.8767 34.3 14.5647 34.3 14.2007ZM14.254 18.6467H3.1C1.67 18.6467 0.5 19.8167 0.5 21.2467V31.6467C0.5 33.0767 1.67 34.2467 3.1 34.2467H14.254C14.592 34.2467 14.93 34.1167 15.164 33.8567L21.664 27.3567C22.184 26.8367 22.184 26.0307 21.664 25.5107L15.164 19.0107C14.93 18.7767 14.618 18.6467 14.254 18.6467ZM18.7 38.6927V49.8467C18.7 51.2767 19.87 52.4467 21.3 52.4467H31.7C33.13 52.4467 34.3 51.2767 34.3 49.8467V38.6927C34.3 38.3547 34.17 38.0167 33.91 37.7827L27.41 31.2827C26.89 30.7627 26.084 30.7627 25.564 31.2827L19.064 37.7827C18.83 38.0167 18.7 38.3287 18.7 38.6927ZM37.81 19.0367L31.31 25.5367C30.79 26.0567 30.79 26.8627 31.31 27.3827L37.81 33.8827C38.044 34.1167 38.382 34.2727 38.72 34.2727H49.9C51.33 34.2727 52.5 33.1027 52.5 31.6727V21.2727C52.5 19.8427 51.33 18.6727 49.9 18.6727H38.746C38.382 18.6467 38.07 18.7767 37.81 19.0367Z" fill="#00B0F0"/>
</svg>
