<svg width="95" height="92" viewBox="0 0 95 92" fill="none" xmlns="http://www.w3.org/2000/svg">
    <path d="M62.32 9.32139L54.9425 1.94395C53.9049 0.906328 52.2226 0.906328 51.185 1.94395L21.5375 31.5914C20.4999 32.6291 20.4999 34.3114 21.5375 35.349L28.915 42.7264C29.9526 43.764 31.6349 43.764 32.6725 42.7264L62.32 13.0789C63.3576 12.0413 63.3576 10.359 62.32 9.32139Z" fill="white"/>
    <path d="M77.2176 42.7251L84.595 35.3477C85.6326 34.3101 85.6326 32.6278 84.595 31.5902L54.9475 1.94266C53.9099 0.905039 52.2276 0.905038 51.19 1.94266L43.8126 9.3201C42.7749 10.3577 42.7749 12.04 43.8126 13.0776L73.4601 42.7251C74.4977 43.7627 76.18 43.7627 77.2176 42.7251Z" fill="white"/>
    <path d="M66.0784 76.1308L73.4559 68.7533C74.4935 67.7157 74.4935 66.0334 73.4558 64.9958L32.6665 24.2064C31.6289 23.1688 29.9465 23.1688 28.9089 24.2064L21.5315 31.5839C20.4939 32.6215 20.4939 34.3038 21.5315 35.3414L62.3209 76.1308C63.3585 77.1684 65.0408 77.1684 66.0784 76.1308Z" fill="white"/>
    <path d="M73.4553 65.0001L66.0779 57.6226C65.0402 56.585 63.358 56.585 62.3203 57.6226L41.0207 78.9223C39.983 79.9599 39.983 81.6422 41.0206 82.6798L48.3981 90.0573C49.4357 91.0949 51.118 91.0949 52.1556 90.0573L73.4553 68.7576C74.4929 67.72 74.4929 66.0377 73.4553 65.0001Z" fill="white"/>
    <path d="M31.7043 62.2169L24.3268 54.8395C23.2892 53.8019 21.6069 53.8019 20.5693 54.8395L2.0568 73.352C1.01919 74.3896 1.01916 76.0719 2.05678 77.1095L9.43423 84.4869C10.4718 85.5246 12.1542 85.5245 13.1918 84.4869L31.7042 65.9745C32.7419 64.9368 32.7419 63.2545 31.7043 62.2169Z" fill="white"/>
    <path d="M92.9432 23.2488L85.5658 15.8713C84.5282 14.8337 82.8458 14.8337 81.8082 15.8714L66.0761 31.6035C65.0385 32.6411 65.0384 34.3234 66.0761 35.3611L73.4535 42.7385C74.4911 43.7761 76.1734 43.7761 77.211 42.7385L92.9432 27.0063C93.9808 25.9687 93.9808 24.2864 92.9432 23.2488Z" fill="white"/>
    </svg>
    