<svg width="299" height="38" viewBox="0 0 299 38" fill="none" xmlns="http://www.w3.org/2000/svg">
<path d="M97.7378 4.53496L94.8283 1.62551C94.4191 1.21631 93.7557 1.21631 93.3465 1.62551L81.6544 13.3176C81.2452 13.7268 81.2452 14.3902 81.6544 14.7994L84.5638 17.7089C84.9731 18.1181 85.6365 18.1181 86.0457 17.7089L97.7378 6.01682C98.147 5.60762 98.147 4.94417 97.7378 4.53496Z" fill="white"/>
<path d="M103.608 17.7096L106.517 14.8002C106.926 14.3909 106.926 13.7275 106.517 13.3183L94.8252 1.62622C94.416 1.21701 93.7525 1.21701 93.3433 1.62622L90.4339 4.53566C90.0247 4.94487 90.0247 5.60832 90.4339 6.01753L102.126 17.7096C102.535 18.1188 103.199 18.1188 103.608 17.7096Z" fill="white"/>
<path d="M99.2149 30.8842L102.124 27.9748C102.534 27.5656 102.534 26.9021 102.124 26.4929L86.0383 10.4068C85.6291 9.99762 84.9656 9.99762 84.5564 10.4068L81.647 13.3163C81.2378 13.7255 81.2378 14.3889 81.647 14.7981L97.7331 30.8842C98.1423 31.2934 98.8057 31.2934 99.2149 30.8842Z" fill="white"/>
<path d="M102.125 26.4927L99.2154 23.5832C98.8062 23.174 98.1427 23.174 97.7335 23.5832L89.3336 31.9832C88.9243 32.3924 88.9243 33.0558 89.3336 33.4651L92.243 36.3745C92.6522 36.7837 93.3157 36.7837 93.7249 36.3745L102.125 27.9746C102.534 27.5654 102.534 26.9019 102.125 26.4927Z" fill="white"/>
<path d="M85.6572 25.3884L82.7477 22.4789C82.3385 22.0697 81.675 22.0697 81.2658 22.4789L73.9651 29.7797C73.5559 30.1889 73.5559 30.8523 73.9651 31.2615L76.8745 34.171C77.2837 34.5802 77.9472 34.5802 78.3564 34.171L85.6572 26.8702C86.0664 26.461 86.0664 25.7976 85.6572 25.3884Z" fill="white"/>
<path d="M109.808 10.0205L106.899 7.11108C106.489 6.70188 105.826 6.70187 105.417 7.11108L99.2125 13.3154C98.8033 13.7246 98.8033 14.388 99.2125 14.7972L102.122 17.7067C102.531 18.1159 103.195 18.1159 103.604 17.7067L109.808 11.5024C110.217 11.0932 110.217 10.4297 109.808 10.0205Z" fill="white"/>
<path d="M7.48944 29.8754V12.5535H0.657394V8.52722H19.2574V12.5535H12.4292V29.8754H7.48944Z" fill="white"/>
<path d="M28.0084 29.8754H23.0686V8.52722H28.0084V29.8754ZM38.0722 21.1204H27.6438V16.9445H38.0722V21.1204ZM37.6884 8.52722H42.6474V29.8754H37.7076L37.6884 8.52722Z" fill="white"/>
<path d="M53.7793 25.9106H65.3976V29.8754H48.8702V8.52722H64.9908V12.4921H53.7793V25.9106ZM53.3955 17.1287H63.6742V20.9669H53.4108L53.3955 17.1287Z" fill="white"/>
<path d="M119.724 29.8754V12.5535H112.895V8.52722H131.495V12.5535H124.663V29.8754H119.724Z" fill="white"/>
<path d="M131.434 29.8754L140.949 8.52722H145.827L155.373 29.8754H150.187L142.38 11.0297H144.334L136.496 29.8754H131.434ZM136.193 25.3003L137.502 21.5503H148.479L149.823 25.3003H136.193Z" fill="white"/>
<path d="M162.113 29.8754V12.5535H155.281V8.52722H173.881V12.5535H167.053V29.8754H162.113Z" fill="white"/>
<path d="M177.693 29.8754V8.52722H188.121C190.803 8.52722 192.822 9.03899 194.178 10.0625C194.819 10.5155 195.34 11.1192 195.693 11.8207C196.047 12.5221 196.222 13.2997 196.204 14.085C196.229 15.117 195.941 16.1323 195.379 16.9982C194.821 17.8359 194.039 18.5007 193.122 18.9173C192.087 19.3792 190.963 19.6072 189.829 19.5852L190.409 18.3377C191.63 18.3156 192.844 18.5374 193.978 18.9902C194.957 19.3736 195.802 20.0355 196.408 20.894C197.011 21.8273 197.315 22.9228 197.279 24.0337C197.31 24.8725 197.128 25.7055 196.749 26.4547C196.371 27.2039 195.808 27.8447 195.114 28.3171C193.671 29.3406 191.546 29.8524 188.739 29.8524L177.693 29.8754ZM182.59 26.1524H188.347C189.629 26.1524 190.597 25.9451 191.261 25.5306C191.59 25.3168 191.856 25.0183 192.03 24.6665C192.204 24.3146 192.281 23.9224 192.251 23.5308C192.275 23.1406 192.197 22.7507 192.023 22.4004C191.849 22.0501 191.586 21.7516 191.261 21.535C190.597 21.0974 189.629 20.8786 188.347 20.8786H182.206V17.2784H187.484C188.681 17.2784 189.603 17.0711 190.24 16.6566C190.556 16.451 190.812 16.1648 190.981 15.8276C191.151 15.4903 191.227 15.1141 191.203 14.7375C191.224 14.3718 191.148 14.0072 190.984 13.6799C190.819 13.3526 190.572 13.0741 190.267 12.8721C189.629 12.4576 188.708 12.2503 187.511 12.2503H182.59V26.1524Z" fill="white"/>
<path d="M212.546 29.8754C211.002 29.8896 209.468 29.619 208.021 29.077C206.684 28.578 205.461 27.8158 204.425 26.8355C203.414 25.8791 202.611 24.7256 202.064 23.4464C201.495 22.1043 201.209 20.6591 201.223 19.2013C201.209 17.7435 201.495 16.2983 202.064 14.9562C202.613 13.6743 203.421 12.5193 204.436 11.5632C205.479 10.5902 206.702 9.83007 208.036 9.32553C210.934 8.26112 214.116 8.26112 217.014 9.32553C218.34 9.83052 219.554 10.5908 220.587 11.5632C222.131 13.0796 223.183 15.025 223.606 17.1468C224.03 19.2687 223.806 21.4689 222.963 23.4617C222.411 24.7421 221.603 25.8956 220.587 26.8509C219.555 27.8176 218.344 28.5738 217.022 29.077C215.593 29.6198 214.075 29.8906 212.546 29.8754ZM212.527 25.8069C213.4 25.8163 214.267 25.6559 215.079 25.3348C215.85 25.0217 216.548 24.5556 217.133 23.9645C217.726 23.3671 218.193 22.6555 218.503 21.8727C219.155 20.1408 219.155 18.231 218.503 16.4992C218.188 15.7244 217.722 15.0198 217.133 14.4265C216.553 13.8358 215.856 13.373 215.087 13.0678C214.272 12.7483 213.403 12.588 212.527 12.5957C211.655 12.5859 210.789 12.7463 209.978 13.0678C209.203 13.3806 208.5 13.8483 207.912 14.4422C207.324 15.0362 206.864 15.744 206.559 16.5222C205.909 18.2465 205.909 20.1484 206.559 21.8727C206.866 22.6552 207.33 23.3669 207.921 23.9645C208.502 24.5561 209.2 25.019 209.971 25.3233C210.784 25.6467 211.652 25.8109 212.527 25.8069Z" fill="white"/>
<path d="M225.961 29.8754L235.48 8.52722H240.359L249.904 29.8754H244.719L236.912 11.0297H238.866L231.028 29.8754H225.961ZM230.721 25.3003L232.034 21.5503H243.011L244.354 25.3003H230.721Z" fill="white"/>
<path d="M253.289 29.8791V8.5309H262.528C264.222 8.48891 265.906 8.8068 267.468 9.46359C268.776 10.024 269.89 10.9588 270.669 12.1503C271.443 13.3901 271.836 14.8305 271.797 16.2918C271.836 17.7411 271.443 19.1691 270.669 20.3949C269.884 21.5695 268.771 22.4867 267.468 23.0317C265.902 23.6762 264.22 23.9873 262.528 23.9452H256.03L258.225 21.7805V29.8791H253.289ZM258.225 22.314L256.03 20.011H262.252C263.787 20.011 264.926 19.6797 265.668 19.0169C266.045 18.6742 266.342 18.252 266.537 17.7809C266.732 17.3097 266.821 16.8012 266.796 16.2918C266.824 15.7793 266.737 15.267 266.541 14.7923C266.346 14.3176 266.048 13.8923 265.668 13.5475C264.915 12.9001 263.777 12.5751 262.252 12.5726H256.03L258.225 10.2236V22.314ZM266.857 29.8791L261.522 22.1336H266.796L272.193 29.8791H266.857Z" fill="white"/>
<path d="M276.86 29.8787V8.53044H286.556C288.679 8.48407 290.783 8.93906 292.697 9.85847C294.398 10.6808 295.834 11.9641 296.842 13.5624C297.871 15.2608 298.391 17.2192 298.339 19.2046C298.386 21.1844 297.867 23.1366 296.842 24.8314C295.838 26.4369 294.401 27.7262 292.697 28.5506C290.782 29.4683 288.679 29.9232 286.556 29.8787H276.86ZM281.8 25.8217H286.31C287.593 25.8538 288.865 25.576 290.018 25.0118C291.037 24.4973 291.884 23.6971 292.455 22.7089C293.054 21.6385 293.355 20.427 293.326 19.2007C293.359 17.9692 293.058 16.7518 292.455 15.6772C291.882 14.6907 291.035 13.8909 290.018 13.3743C288.864 12.8131 287.593 12.5367 286.31 12.5683H281.8V25.8217Z" fill="white"/>
</svg>
