<svg width="61" height="41" viewBox="0 0 61 41" fill="none" xmlns="http://www.w3.org/2000/svg">
    <path d="M51.0333 23.444C49.9 23.0402 48.6333 23.3767 47.9667 24.2517L44.5667 28.963C44.3667 29.2323 44.0333 29.2323 43.8333 28.963L40.4333 24.2517C39.7667 23.3767 38.5 23.0402 37.3667 23.444C36.0333 23.9152 34.9 24.3863 33.9 24.8574C33.4333 25.0594 33.4333 25.7324 33.9 26.0016C37.9667 28.3573 40.0333 30.9149 40.7667 35.4916C40.8333 35.8281 41.1 36.03 41.3667 36.03H58.9C59.7667 36.03 60.5 35.4243 60.5 34.6839C60.5 28.1554 58.0333 26.0016 51.0333 23.444ZM41.3 2.64687C33.7 2.84879 33.8333 11.3965 36.6333 16.579C37.0333 17.3193 37.7 18.127 38.3667 18.6654C38.9 19.0692 39.5667 19.2711 40.2333 19.2711C40.3667 19.2711 40.5 19.2038 40.5667 19.1365C41.4333 20.0788 42.7 21.0884 44.2333 21.0884H44.3C45.5667 21.0884 46.8333 20.4153 47.9667 19.1365C48.0333 19.2038 48.1667 19.2038 48.3 19.2038C48.9 19.2038 49.4333 19.0692 49.9667 18.7327C50.6333 18.2616 51.2333 17.5212 51.7 16.9828C57.0333 10.0504 51.5667 -4.0836 41.3 2.64687ZM49.9667 9.24274C50.1667 10.7908 49.5667 13.4829 48.7 16.0405C47.5 18.3962 45.7 19.8769 44.3667 19.7423C41.7667 19.5404 40.1 16.2424 40.1 16.1751C39.3 13.8195 38.6333 11.4638 38.6333 10.7234C38.6333 10.5888 38.7667 10.4542 38.9 10.3869C41.1667 9.57927 42.5667 7.49282 43.0333 6.61786C43.1667 6.41594 43.4333 6.34864 43.5667 6.55055C45.0333 8.16587 48.7 8.77161 49.7 8.97352C49.8333 8.90622 49.9667 9.04083 49.9667 9.24274ZM29.1667 26.742C28.1 26.2708 26.8333 26.6747 26.1667 27.6842L22.5 33.5398C22.3667 33.7417 22.0333 33.7417 21.9667 33.4725L20.4333 28.3573C20.3667 28.1554 20.4333 27.8862 20.5667 27.7516L21.7 26.6074C21.9667 26.4055 21.7667 25.9343 21.4333 25.9343H17.4333C17.1 25.9343 16.9 26.3382 17.1667 26.6074L18.3 27.7516C18.4333 27.8862 18.5 28.1554 18.4333 28.3573L16.9 33.4725C16.8333 33.7417 16.5 33.7417 16.3667 33.5398L12.7 27.6842C12.0333 26.6747 10.8333 26.2708 9.7 26.742C2.9 29.5688 0.5 32.0591 0.5 39.328C0.5 40.2029 1.16667 40.876 2.03333 40.876H36.8333C37.7 40.876 38.3667 40.2029 38.3667 39.328C38.3667 32.0591 35.9 29.5688 29.1667 26.742ZM19.4333 23.7133C28.3667 23.7133 33.0333 3.18531 19.4333 2.9834C5.83333 3.25262 10.5 23.7133 19.4333 23.7133Z" fill="#00B0F0"/>
    </svg>
    