<svg width="20" height="20" viewBox="0 0 20 20" fill="none" xmlns="http://www.w3.org/2000/svg">
    <path d="M18.9474 3.33366H17.8947V2.2781C17.8947 1.99815 17.7838 1.72967 17.5864 1.53171C17.389 1.33376 17.1213 1.22255 16.8421 1.22255C16.5629 1.22255 16.2952 1.33376 16.0978 1.53171C15.9004 1.72967 15.7895 1.99815 15.7895 2.2781V3.33366H14.7368C14.4577 3.33366 14.1899 3.44487 13.9925 3.64283C13.7951 3.84078 13.6842 4.10927 13.6842 4.38922C13.6842 4.66917 13.7951 4.93765 13.9925 5.13561C14.1899 5.33356 14.4577 5.44477 14.7368 5.44477H15.7895V6.50033C15.7895 6.78028 15.9004 7.04876 16.0978 7.24672C16.2952 7.44467 16.5629 7.55588 16.8421 7.55588C17.1213 7.55588 17.389 7.44467 17.5864 7.24672C17.7838 7.04876 17.8947 6.78028 17.8947 6.50033V5.44477H18.9474C19.2265 5.44477 19.4943 5.33356 19.6917 5.13561C19.8891 4.93765 20 4.66917 20 4.38922C20 4.10927 19.8891 3.84078 19.6917 3.64283C19.4943 3.44487 19.2265 3.33366 18.9474 3.33366ZM7.36842 8.61144C8.20119 8.61144 9.01525 8.36381 9.70766 7.89986C10.4001 7.43592 10.9398 6.7765 11.2584 6.00499C11.5771 5.23348 11.6605 4.38453 11.498 3.5655C11.3356 2.74647 10.9346 1.99414 10.3457 1.40365C9.75686 0.813166 9.00662 0.411038 8.18985 0.248123C7.37309 0.0852075 6.5265 0.168822 5.75712 0.488392C4.98775 0.807962 4.33015 1.34913 3.8675 2.04348C3.40484 2.73782 3.15789 3.55414 3.15789 4.38922C3.15789 5.50902 3.6015 6.58296 4.39113 7.37478C5.18076 8.1666 6.25172 8.61144 7.36842 8.61144ZM13.6842 19.167C13.9634 19.167 14.2311 19.0558 14.4285 18.8578C14.6259 18.6599 14.7368 18.3914 14.7368 18.1114C14.7368 16.1518 13.9605 14.2724 12.5787 12.8867C11.1968 11.501 9.32265 10.7225 7.36842 10.7225C5.41419 10.7225 3.54001 11.501 2.15816 12.8867C0.776313 14.2724 2.91202e-08 16.1518 0 18.1114C0 18.3914 0.110902 18.6599 0.308309 18.8578C0.505715 19.0558 0.773456 19.167 1.05263 19.167" fill="white"/>
    </svg>
    