<svg width="81" height="71" viewBox="0 0 81 71" fill="none" xmlns="http://www.w3.org/2000/svg">
    <path d="M79.3014 53.6421L51.3933 6.78591C50.2648 4.99865 48.71 3.52779 46.8723 2.50895C45.0345 1.4901 42.973 0.956055 40.8778 0.956055C38.7825 0.956055 36.721 1.4901 34.8832 2.50895C33.0455 3.52779 31.4907 4.99865 30.3622 6.78591L2.45408 53.6421C1.46822 55.3059 0.932378 57.2031 0.900442 59.1429C0.868506 61.0828 1.3416 62.997 2.27215 64.6931C3.34801 66.6022 4.90526 68.1879 6.78476 69.2882C8.66425 70.3884 10.7986 70.9637 12.9697 70.9553H68.7859C70.9426 70.9786 73.0674 70.4256 74.9456 69.352C76.8238 68.2783 78.389 66.7222 79.4834 64.8405C80.4412 63.1267 80.9294 61.185 80.8975 59.2162C80.8655 57.2474 80.3145 55.323 79.3014 53.6421ZM40.8778 56.2207C40.1581 56.2207 39.4546 56.0047 38.8562 55.5999C38.2579 55.1951 37.7915 54.6198 37.5161 53.9467C37.2407 53.2736 37.1687 52.5329 37.3091 51.8184C37.4495 51.1038 37.796 50.4475 38.3049 49.9323C38.8137 49.4171 39.4621 49.0663 40.1679 48.9241C40.8737 48.782 41.6053 48.855 42.2702 49.1338C42.9351 49.4126 43.5033 49.8847 43.9031 50.4905C44.303 51.0963 44.5164 51.8085 44.5164 52.537C44.5164 53.514 44.133 54.451 43.4506 55.1418C42.7683 55.8326 41.8428 56.2207 40.8778 56.2207ZM44.5164 41.486C44.5164 42.463 44.133 43.4 43.4506 44.0908C42.7683 44.7816 41.8428 45.1697 40.8778 45.1697C39.9127 45.1697 38.9872 44.7816 38.3049 44.0908C37.6225 43.4 37.2391 42.463 37.2391 41.486V26.7514C37.2391 25.7744 37.6225 24.8375 38.3049 24.1466C38.9872 23.4558 39.9127 23.0677 40.8778 23.0677C41.8428 23.0677 42.7683 23.4558 43.4506 24.1466C44.133 24.8375 44.5164 25.7744 44.5164 26.7514V41.486Z" fill="#00B0F0"/>
    </svg>
    