<svg width="24" height="24" viewBox="0 0 24 24" fill="none" xmlns="http://www.w3.org/2000/svg">
    <path opacity="0.2" d="M11.9754 17.6415L11.2543 18.3175C10.5506 18.5223 9.80525 19.0789 9.19386 18.8589C8.4221 18.5809 8.13038 17.2435 7.48787 16.7249C6.83903 16.2011 5.60411 16.3029 5.13199 15.583C4.9558 15.3144 4.91254 14.9673 4.91307 14.5928L0.929796 18.3263L0.925049 18.3251L5.62521 13.9197C5.62468 14.2943 5.66794 14.6413 5.84413 14.91C6.31626 15.6299 7.55117 15.528 8.20002 16.0519C8.84253 16.5704 9.13425 17.9078 9.906 18.1858C10.52 18.407 11.2691 17.8446 11.9754 17.6415Z" fill="black"/>
    <path d="M11.9755 17.6415L5.22222 23.9701L5.08507 19.2621L0.925079 18.3251L5.62524 13.9197C5.62472 14.2943 5.66797 14.6413 5.84416 14.91C6.31629 15.6299 7.5512 15.528 8.20005 16.0519C8.84256 16.5704 9.13428 17.9078 9.90603 18.1858C10.5201 18.407 11.2691 17.8446 11.9755 17.6415Z" fill="#C9314B"/>
    <path d="M19.2089 13.9197L23.9091 18.3251L19.7491 19.2621L19.6119 23.9701L12.8587 17.6415C13.565 17.8446 14.3136 18.407 14.9281 18.1858C15.6999 17.9078 15.9916 16.5704 16.6336 16.0519C17.2824 15.528 18.5173 15.6299 18.9895 14.91C19.1656 14.6413 19.2094 14.2943 19.2089 13.9197Z" fill="#C9314B"/>
    <path d="M19.2417 7.15063C19.4833 7.97646 20.5405 8.69577 20.5405 9.61115C20.5405 10.5265 19.4833 11.2453 19.2417 12.0717C19.0856 12.6055 19.2074 13.2996 19.2085 13.9194C19.209 14.294 19.1652 14.6411 18.9891 14.9097C18.5169 15.6296 17.282 15.5278 16.6332 16.0516C15.9912 16.5702 15.6995 17.9075 14.9277 18.1855C14.3132 18.4068 13.5646 17.8443 12.8583 17.6412C12.7085 17.5979 12.5608 17.571 12.4167 17.571C12.2727 17.571 12.125 17.5979 11.9752 17.6412C11.2689 17.8443 10.5198 18.4068 9.90577 18.1855C9.13401 17.9075 8.84229 16.5702 8.19978 16.0516C7.55094 15.5278 6.31602 15.6296 5.84389 14.9097C5.6677 14.6411 5.62445 14.294 5.62498 13.9194C5.62603 13.2996 5.74789 12.6055 5.59174 12.0717C5.34961 11.2458 4.293 10.5265 4.293 9.61115C4.293 8.69577 5.34961 7.97646 5.59174 7.15063C5.84231 6.29436 5.37652 5.02546 5.84389 4.31259C6.31602 3.59269 7.55094 3.69453 8.19978 3.1707C8.84229 2.65214 9.13401 1.31477 9.90577 1.03676C10.6501 0.768705 11.5917 1.65131 12.4167 1.65131C13.2418 1.65131 14.1829 0.768705 14.9277 1.03676C15.6995 1.31477 15.9912 2.65214 16.6332 3.1707C17.282 3.69453 18.5169 3.59269 18.9891 4.31259C19.4564 5.02546 18.9912 6.29436 19.2417 7.15063ZM17.579 9.61115C17.579 6.4477 15.2674 3.88358 12.4167 3.88358C9.56552 3.88358 7.25447 6.4477 7.25447 9.61115C7.25447 12.774 9.56552 15.3387 12.4167 15.3387C15.2674 15.3387 17.579 12.774 17.579 9.61115Z" fill="#DD6475"/>
    <path opacity="0.2" d="M20.5408 9.61129C20.5408 8.69591 19.4836 7.9766 19.242 7.15077C18.9915 6.2945 19.4567 5.02561 18.9893 4.31273C18.5172 3.59283 17.2823 3.69467 16.6335 3.17085C15.9915 2.65229 15.6998 1.31491 14.928 1.03691C14.7254 0.963745 14.5081 0.976036 14.2828 1.03281C14.2871 1.03398 14.2908 1.03573 14.295 1.03691C15.0667 1.31491 15.3585 2.65229 16.0004 3.17085C16.6493 3.69467 17.8842 3.59283 18.3563 4.31273C18.8237 5.02561 18.3584 6.2945 18.609 7.15077C18.8506 7.9766 19.9077 8.69591 19.9077 9.61129C19.9077 10.5267 18.8506 11.2454 18.609 12.0718C18.4529 12.6056 18.5747 13.2997 18.5758 13.9196C18.5763 14.2941 18.5325 14.6412 18.3563 14.9099C17.8842 15.6298 16.6493 15.5279 16.0004 16.0517C15.3585 16.5703 15.0667 17.9077 14.295 18.1857C14.2908 18.1874 14.2865 18.1886 14.2823 18.1898C14.5081 18.2465 14.7254 18.2588 14.928 18.1857C15.6998 17.9077 15.9915 16.5703 16.6335 16.0517C17.2823 15.5279 18.5172 15.6298 18.9893 14.9099C19.1655 14.6412 19.2093 14.2941 19.2088 13.9196C19.2077 13.2997 19.0859 12.6056 19.242 12.0718C19.4836 11.2454 20.5408 10.5267 20.5408 9.61129Z" fill="black"/>
    <path d="M17.5797 9.6121C17.5797 12.775 15.2681 15.3397 12.4174 15.3397C9.56617 15.3397 7.25513 12.775 7.25513 9.6121C7.25513 6.44864 9.56617 3.88452 12.4174 3.88452C15.2681 3.88452 17.5797 6.44864 17.5797 9.6121Z" fill="#FFC035"/>
    <path opacity="0.2" d="M12.8586 17.6415L13.5798 18.3175C14.2835 18.5223 15.0288 19.0789 15.6402 18.8589C16.412 18.5809 16.7037 17.2435 17.3462 16.7249C17.9951 16.2011 19.23 16.3029 19.7021 15.583C19.8783 15.3144 19.9215 14.9673 19.921 14.5928L23.9043 18.3263L23.909 18.3251L19.2089 13.9197C19.2094 14.2943 19.1661 14.6413 18.99 14.91C18.5178 15.6299 17.2829 15.528 16.6341 16.0519C15.9916 16.5704 15.6998 17.9078 14.9281 18.1858C14.3141 18.407 13.565 17.8446 12.8586 17.6415Z" fill="black"/>
    <path opacity="0.2" d="M17.5795 9.6121C17.5795 12.775 15.2679 15.3397 12.4172 15.3397V3.88452C15.2679 3.88452 17.5795 6.44864 17.5795 9.6121Z" fill="url(#paint0_linear_2365_37324)"/>
    <defs>
    <linearGradient id="paint0_linear_2365_37324" x1="12.4172" y1="9.6121" x2="17.5795" y2="9.6121" gradientUnits="userSpaceOnUse">
    <stop/>
    <stop offset="1" stop-color="white" stop-opacity="0"/>
    </linearGradient>
    </defs>
    </svg>
    