<svg width="17" height="21" viewBox="0 0 17 21" fill="none" xmlns="http://www.w3.org/2000/svg">
    <path d="M8.67025 20.5C9.83039 20.5 10.7796 19.5769 10.7796 18.4487H6.56089C6.56089 19.5769 7.49955 20.5 8.67025 20.5ZM14.9983 14.3462V9.21795C14.9983 6.06923 13.2686 3.43333 10.2523 2.7359V2.03846C10.2523 1.18718 9.54563 0.5 8.67025 0.5C7.79486 0.5 7.08823 1.18718 7.08823 2.03846V2.7359C4.0613 3.43333 2.34217 6.05897 2.34217 9.21795V14.3462L0.981634 15.6692C0.317186 16.3154 0.781244 17.4231 1.71991 17.4231H15.61C16.5487 17.4231 17.0233 16.3154 16.3589 15.6692L14.9983 14.3462Z" fill="black"/>
    </svg>
    