<svg width="20" height="19" viewBox="0 0 20 19" fill="none" xmlns="http://www.w3.org/2000/svg">
    <path d="M10 13.7393C11.6569 13.7393 13 12.3961 13 10.7393C13 9.0824 11.6569 7.73926 10 7.73926C8.34315 7.73926 7 9.0824 7 10.7393C7 12.3961 8.34315 13.7393 10 13.7393Z" fill="#787676"/>
    <path d="M18 2.73926H14.83L13.59 1.38926C13.22 0.979258 12.68 0.739258 12.12 0.739258H7.88C7.32 0.739258 6.78 0.979258 6.4 1.38926L5.17 2.73926H2C0.9 2.73926 0 3.63926 0 4.73926V16.7393C0 17.8393 0.9 18.7393 2 18.7393H18C19.1 18.7393 20 17.8393 20 16.7393V4.73926C20 3.63926 19.1 2.73926 18 2.73926ZM10 15.7393C7.24 15.7393 5 13.4993 5 10.7393C5 7.97926 7.24 5.73926 10 5.73926C12.76 5.73926 15 7.97926 15 10.7393C15 13.4993 12.76 15.7393 10 15.7393Z" fill="#787676"/>
    </svg>
    