<svg width="16" height="13" viewBox="0 0 16 13" fill="none" xmlns="http://www.w3.org/2000/svg">
    <path d="M8.17014 9.366C9.39995 9.366 10.3969 8.40596 10.3969 7.2217C10.3969 6.03743 9.39995 5.07739 8.17014 5.07739C6.94032 5.07739 5.94336 6.03743 5.94336 7.2217C5.94336 8.40596 6.94032 9.366 8.17014 9.366Z" fill="white"/>
    <path d="M14.1077 1.50009H11.7548L10.8344 0.535156C10.5597 0.242101 10.1589 0.0705566 9.74325 0.0705566H6.59607C6.18041 0.0705566 5.77959 0.242101 5.49753 0.535156L4.58455 1.50009H2.23159C1.4151 1.50009 0.74707 2.14338 0.74707 2.92963V11.5068C0.74707 12.2931 1.4151 12.9364 2.23159 12.9364H14.1077C14.9242 12.9364 15.5922 12.2931 15.5922 11.5068V2.92963C15.5922 2.14338 14.9242 1.50009 14.1077 1.50009ZM8.16966 10.7921C6.12102 10.7921 4.45836 9.19099 4.45836 7.21823C4.45836 5.24548 6.12102 3.6444 8.16966 3.6444C10.2183 3.6444 11.881 5.24548 11.881 7.21823C11.881 9.19099 10.2183 10.7921 8.16966 10.7921Z" fill="white"/>
    </svg>
    