<svg width="21" height="21" viewBox="0 0 21 21" fill="none" xmlns="http://www.w3.org/2000/svg">
<path d="M10.561 0.677734C5.03854 0.677734 0.561035 5.15523 0.561035 10.6777C0.561035 16.2002 5.03854 20.6777 10.561 20.6777C16.0835 20.6777 20.561 16.2002 20.561 10.6777C20.561 5.15523 16.0835 0.677734 10.561 0.677734ZM10.561 19.4277C5.73604 19.4277 1.81104 15.5027 1.81104 10.6777C1.81104 5.85273 5.73604 1.92773 10.561 1.92773C15.386 1.92773 19.311 5.85273 19.311 10.6777C19.311 15.5027 15.386 19.4277 10.561 19.4277ZM10.561 8.17773C10.2295 8.17773 9.91157 8.30943 9.67715 8.54385C9.44273 8.77827 9.31104 9.09621 9.31104 9.42773V15.6777C9.31104 16.0093 9.44273 16.3272 9.67715 16.5616C9.91157 16.796 10.2295 16.9277 10.561 16.9277C10.8926 16.9277 11.2105 16.796 11.4449 16.5616C11.6793 16.3272 11.811 16.0093 11.811 15.6777V9.42773C11.811 9.09621 11.6793 8.77827 11.4449 8.54385C11.2105 8.30943 10.8926 8.17773 10.561 8.17773ZM9.31104 5.69773C9.31104 5.86189 9.34337 6.02443 9.40619 6.17609C9.469 6.32775 9.56108 6.46554 9.67715 6.58162C9.79323 6.69769 9.93102 6.78977 10.0827 6.85258C10.2343 6.9154 10.3969 6.94773 10.561 6.94773C10.7252 6.94773 10.8877 6.9154 11.0394 6.85258C11.191 6.78977 11.3288 6.69769 11.4449 6.58162C11.561 6.46554 11.6531 6.32775 11.7159 6.17609C11.7787 6.02443 11.811 5.86189 11.811 5.69773C11.811 5.53358 11.7787 5.37104 11.7159 5.21938C11.6531 5.06772 11.561 4.92992 11.4449 4.81385C11.3288 4.69778 11.191 4.6057 11.0394 4.54288C10.8877 4.48007 10.7252 4.44773 10.561 4.44773C10.3969 4.44773 10.2343 4.48007 10.0827 4.54288C9.93102 4.6057 9.79323 4.69778 9.67715 4.81385C9.56108 4.92992 9.469 5.06772 9.40619 5.21938C9.34337 5.37104 9.31104 5.53358 9.31104 5.69773Z" fill="#00B0F0"/>
</svg>
