<svg width="8" height="9" viewBox="0 0 8 9" fill="none" xmlns="http://www.w3.org/2000/svg">
<path d="M7.79271 7.01086C8.0691 7.28752 8.0691 7.71787 7.79271 7.99453C7.65451 8.13286 7.4856 8.19434 7.30134 8.19434C7.11708 8.19434 6.94818 8.13286 6.80998 7.99453L4 5.18185L1.19002 7.99453C1.05182 8.13286 0.882918 8.19434 0.698657 8.19434C0.514395 8.19434 0.345489 8.13286 0.207294 7.99453C-0.0690979 7.71787 -0.0690979 7.28752 0.207294 7.01086L3.01727 4.19818L0.207294 1.3855C-0.0690979 1.10884 -0.0690979 0.678486 0.207294 0.401829C0.483685 0.125172 0.913628 0.125172 1.19002 0.401829L4 3.21451L6.80998 0.401829C7.08637 0.125172 7.51631 0.125172 7.79271 0.401829C8.0691 0.678486 8.0691 1.10884 7.79271 1.3855L4.98273 4.19818L7.79271 7.01086Z" fill="white"/>
</svg>
