
<svg width="18" height="20" viewBox="0 0 18 20" fill="none" xmlns="http://www.w3.org/2000/svg">
    <path d="M1.48901 5.00033H3.15568M3.15568 5.00033H16.489M3.15568 5.00033V16.667C3.15568 17.109 3.33127 17.5329 3.64384 17.8455C3.9564 18.1581 4.38032 18.3337 4.82235 18.3337H13.1557C13.5977 18.3337 14.0216 18.1581 14.3342 17.8455C14.6468 17.5329 14.8223 17.109 14.8223 16.667V5.00033H3.15568ZM5.65568 5.00033V3.33366C5.65568 2.89163 5.83128 2.46771 6.14384 2.15515C6.4564 1.84259 6.88032 1.66699 7.32235 1.66699H10.6557C11.0977 1.66699 11.5216 1.84259 11.8342 2.15515C12.1468 2.46771 12.3223 2.89163 12.3223 3.33366V5.00033M7.32235 9.16699V14.167M10.6557 9.16699V14.167" stroke="black" stroke-width="1.66667" stroke-linecap="round" stroke-linejoin="round"/>
    </svg>
    