<svg width="12" height="8" viewBox="0 0 12 8" fill="none" xmlns="http://www.w3.org/2000/svg">
    <path d="M1.83895 0.81045L6.0056 4.93531L10.1722 0.81045C10.2717 0.712025 10.3897 0.633951 10.5196 0.580684C10.6495 0.527417 10.7887 0.5 10.9293 0.5C11.0699 0.5 11.2092 0.527417 11.3391 0.580684C11.469 0.633951 11.587 0.712025 11.6864 0.81045C11.7858 0.908874 11.8647 1.02572 11.9185 1.15432C11.9723 1.28292 12 1.42075 12 1.55994C12 1.69913 11.9723 1.83696 11.9185 1.96556C11.8647 2.09416 11.7858 2.21101 11.6864 2.30943L6.75731 7.1891C6.65796 7.28765 6.53996 7.36584 6.41005 7.41919C6.28014 7.47254 6.14087 7.5 6.00023 7.5C5.85958 7.5 5.72032 7.47254 5.59041 7.41919C5.4605 7.36584 5.34249 7.28765 5.24314 7.1891L0.314049 2.30943C0.214496 2.21108 0.135515 2.09426 0.0816267 1.96565C0.0277379 1.83704 0 1.69917 0 1.55994C0 1.42071 0.0277379 1.28284 0.0816267 1.15423C0.135515 1.02563 0.214496 0.908802 0.314049 0.81045C0.732861 0.406469 1.42014 0.395838 1.83895 0.81045Z" fill="#706F6F"/>
    </svg>
    