<svg width="15" height="15" viewBox="0 0 15 15" fill="none" xmlns="http://www.w3.org/2000/svg">
    <path d="M12.0299 0.747344C11.8714 0.588813 11.6563 0.499756 11.4321 0.499756C11.2078 0.499756 10.9928 0.588813 10.8342 0.747344L9.6385 1.9439L13.2256 5.53105L14.4214 4.33533C14.5799 4.17676 14.6689 3.96171 14.6689 3.73748C14.6689 3.51325 14.5799 3.2982 14.4214 3.13962L12.0299 0.747344ZM12.0299 6.72761L8.44194 3.13962L0.915868 10.6657C0.757789 10.8242 0.668993 11.0389 0.668945 11.2627V13.655C0.668945 13.8793 0.758038 14.0943 0.916624 14.2529C1.07521 14.4115 1.2903 14.5006 1.51457 14.5006H3.906C4.13026 14.5006 4.34531 14.4114 4.50386 14.2528L12.0299 6.72676V6.72761Z" fill="#00B0F0"/>
    </svg>
    