<svg width="17" height="17" viewBox="0 0 17 17" fill="none" xmlns="http://www.w3.org/2000/svg">
    <path d="M12.5 0.690356C12.7189 0.471486 12.9787 0.297869 13.2647 0.179418C13.5506 0.060966 13.8571 2.30617e-09 14.1667 0C14.4762 -2.30617e-09 14.7827 0.060966 15.0687 0.179418C15.3546 0.297869 15.6145 0.471486 15.8333 0.690356C16.0522 0.909226 16.2258 1.16906 16.3443 1.45503C16.4627 1.741 16.5237 2.04749 16.5237 2.35702C16.5237 2.66655 16.4627 2.97305 16.3443 3.25902C16.2258 3.54498 16.0522 3.80482 15.8333 4.02369L4.58333 15.2737L0 16.5237L1.25 11.9404L12.5 0.690356Z" fill="white"/>
    </svg>
    