<svg width="22" height="23" viewBox="0 0 22 23" fill="none" xmlns="http://www.w3.org/2000/svg">
    <path d="M14.3 6.43692V1.71792C14.3 1.11292 13.805 0.61792 13.2 0.61792H8.8C8.195 0.61792 7.7 1.11292 7.7 1.71792V6.43692C7.7 6.57992 7.755 6.72292 7.865 6.82192L10.615 9.57192C10.835 9.79192 11.176 9.79192 11.396 9.57192L14.146 6.82192C14.245 6.72292 14.3 6.59092 14.3 6.43692ZM5.819 8.31792H1.1C0.495 8.31792 0 8.81292 0 9.41792V13.8179C0 14.4229 0.495 14.9179 1.1 14.9179H5.819C5.962 14.9179 6.105 14.8629 6.204 14.7529L8.954 12.0029C9.174 11.7829 9.174 11.4419 8.954 11.2219L6.204 8.47192C6.105 8.37292 5.973 8.31792 5.819 8.31792ZM7.7 16.7989V21.5179C7.7 22.1229 8.195 22.6179 8.8 22.6179H13.2C13.805 22.6179 14.3 22.1229 14.3 21.5179V16.7989C14.3 16.6559 14.245 16.5129 14.135 16.4139L11.385 13.6639C11.165 13.4439 10.824 13.4439 10.604 13.6639L7.854 16.4139C7.755 16.5129 7.7 16.6449 7.7 16.7989ZM15.785 8.48292L13.035 11.2329C12.815 11.4529 12.815 11.7939 13.035 12.0139L15.785 14.7639C15.884 14.8629 16.027 14.9289 16.17 14.9289H20.9C21.505 14.9289 22 14.4339 22 13.8289V9.42892C22 8.82392 21.505 8.32892 20.9 8.32892H16.181C16.027 8.31792 15.895 8.37292 15.785 8.48292Z" fill="#A3A3A3"/>
    </svg>
    