<svg width="35" height="36" viewBox="0 0 35 36" fill="none" xmlns="http://www.w3.org/2000/svg">
<path fill-rule="evenodd" clip-rule="evenodd" d="M4.86135 2.67168C4.08781 2.67168 3.34594 2.97897 2.79896 3.52595C2.25198 4.07293 1.94469 4.8148 1.94469 5.58834V9.47699C1.94469 9.73487 1.84224 9.98219 1.65989 10.1645C1.47755 10.3469 1.23023 10.4493 0.972344 10.4493C0.714462 10.4493 0.467143 10.3469 0.284793 10.1645C0.102443 9.98219 0 9.73487 0 9.47699V5.58834C0 4.29903 0.512177 3.06253 1.42386 2.15085C2.33554 1.23917 3.57204 0.72699 4.86135 0.72699H8.75C9.00788 0.72699 9.2552 0.829433 9.43755 1.01178C9.6199 1.19413 9.72234 1.44145 9.72234 1.69933C9.72234 1.95722 9.6199 2.20453 9.43755 2.38688C9.2552 2.56923 9.00788 2.67168 8.75 2.67168H4.86135ZM4.86135 33.7823C4.08781 33.7823 3.34594 33.475 2.79896 32.928C2.25198 32.3811 1.94469 31.6392 1.94469 30.8656V26.977C1.94469 26.7191 1.84224 26.4718 1.65989 26.2894C1.47755 26.1071 1.23023 26.0046 0.972344 26.0046C0.714462 26.0046 0.467143 26.1071 0.284793 26.2894C0.102443 26.4718 0 26.7191 0 26.977V30.8656C0 31.504 0.125742 32.1362 0.370048 32.726C0.614354 33.3158 0.972439 33.8517 1.42386 34.3031C1.87528 34.7546 2.41119 35.1126 3.00099 35.3569C3.5908 35.6012 4.22295 35.727 4.86135 35.727H8.75C9.00788 35.727 9.2552 35.6245 9.43755 35.4422C9.6199 35.2598 9.72234 35.0125 9.72234 34.7546C9.72234 34.4968 9.6199 34.2494 9.43755 34.0671C9.2552 33.8847 9.00788 33.7823 8.75 33.7823H4.86135ZM30.1386 2.67168C30.9122 2.67168 31.6541 2.97897 32.201 3.52595C32.748 4.07293 33.0553 4.8148 33.0553 5.58834V9.47699C33.0553 9.73487 33.1578 9.98219 33.3401 10.1645C33.5225 10.3469 33.7698 10.4493 34.0277 10.4493C34.2855 10.4493 34.5329 10.3469 34.7152 10.1645C34.8976 9.98219 35 9.73487 35 9.47699V5.58834C35 4.94994 34.8743 4.31779 34.63 3.72798C34.3856 3.13818 34.0276 2.60227 33.5761 2.15085C33.1247 1.69943 32.5888 1.34134 31.999 1.09704C31.4092 0.852732 30.777 0.72699 30.1386 0.72699H26.25C25.9921 0.72699 25.7448 0.829433 25.5624 1.01178C25.3801 1.19413 25.2777 1.44145 25.2777 1.69933C25.2777 1.95722 25.3801 2.20453 25.5624 2.38688C25.7448 2.56923 25.9921 2.67168 26.25 2.67168H30.1386ZM30.1386 33.7823C30.9122 33.7823 31.6541 33.475 32.201 32.928C32.748 32.3811 33.0553 31.6392 33.0553 30.8656V26.977C33.0553 26.7191 33.1578 26.4718 33.3401 26.2894C33.5225 26.1071 33.7698 26.0046 34.0277 26.0046C34.2855 26.0046 34.5329 26.1071 34.7152 26.2894C34.8976 26.4718 35 26.7191 35 26.977V30.8656C35 31.504 34.8743 32.1362 34.63 32.726C34.3856 33.3158 34.0276 33.8517 33.5761 34.3031C33.1247 34.7546 32.5888 35.1126 31.999 35.3569C31.4092 35.6012 30.777 35.727 30.1386 35.727H26.25C25.9921 35.727 25.7448 35.6245 25.5624 35.4422C25.3801 35.2598 25.2777 35.0125 25.2777 34.7546C25.2777 34.4968 25.3801 34.2494 25.5624 34.0671C25.7448 33.8847 25.9921 33.7823 26.25 33.7823H30.1386ZM10.2083 9.08834C10.745 9.08834 11.1803 9.52366 11.1803 10.0603V11.6805C11.1803 11.9383 11.0779 12.1855 10.8956 12.3678C10.7133 12.5501 10.4661 12.6525 10.2083 12.6525C9.95055 12.6525 9.70332 12.5501 9.52104 12.3678C9.33876 12.1855 9.23635 11.9383 9.23635 11.6805V10.0603C9.23635 9.52366 9.67167 9.08834 10.2083 9.08834ZM24.7917 9.08834C25.3283 9.08834 25.7636 9.52366 25.7636 10.0603V11.6805C25.7636 11.9383 25.6612 12.1855 25.479 12.3678C25.2967 12.5501 25.0495 12.6525 24.7917 12.6525C24.5339 12.6525 24.2867 12.5501 24.1044 12.3678C23.9221 12.1855 23.8197 11.9383 23.8197 11.6805V10.0603C23.8197 9.52366 24.255 9.08834 24.7917 9.08834ZM18.3101 12.3288C18.8468 12.3288 19.2821 12.7641 19.2821 13.3007V17.8383C19.2821 18.2214 19.2066 18.6006 19.0601 18.9545C18.9135 19.3084 18.6986 19.6299 18.4278 19.9007C18.157 20.1716 17.8354 20.3864 17.4816 20.533C17.1277 20.6796 16.7484 20.755 16.3654 20.755H15.8798C15.6219 20.755 15.3746 20.6526 15.1922 20.4702C15.0099 20.2879 14.9074 20.0405 14.9074 19.7827C14.9074 19.5248 15.0099 19.2775 15.1922 19.0951C15.3746 18.9128 15.6219 18.8103 15.8798 18.8103H16.3654C16.9028 18.8103 17.3381 18.375 17.3381 17.8383V13.3007C17.3381 12.7641 17.7734 12.3288 18.3101 12.3288ZM9.67094 22.2126C9.77736 22.1421 9.89664 22.0932 10.022 22.0687C10.1473 22.0443 10.2762 22.0448 10.4013 22.0702C10.5265 22.0955 10.6454 22.1453 10.7513 22.2167C10.8572 22.2881 10.9479 22.3796 11.0184 22.4861C12.0553 24.0501 14.4856 25.2919 17.5 25.2919C20.5144 25.2919 22.9447 24.0501 23.9816 22.4861C24.125 22.2737 24.3466 22.1265 24.598 22.0767C24.8495 22.0269 25.1104 22.0784 25.324 22.22C25.5377 22.3617 25.6867 22.5819 25.7387 22.8329C25.7907 23.0839 25.7415 23.3453 25.6018 23.5601C24.1026 25.822 20.957 27.2358 17.5 27.2358C14.0438 27.2358 10.8974 25.8213 9.39823 23.5608C9.32752 23.4544 9.27849 23.3351 9.25392 23.2098C9.22936 23.0844 9.22976 22.9554 9.25508 22.8302C9.28041 22.705 9.33018 22.586 9.40153 22.48C9.47289 22.374 9.56444 22.2832 9.67094 22.2126Z" fill="#2B3151"/>
</svg>
