<svg width="23" height="22" viewBox="0 0 23 22" fill="none" xmlns="http://www.w3.org/2000/svg">
    <path fill-rule="evenodd" clip-rule="evenodd" d="M3.79579 11.6002L7.33522 14.3536L1.53831 20.1505C1.13441 19.6143 0.85421 18.9954 0.717823 18.3382L0.716917 18.3373C0.693486 18.2156 0.674736 18.0931 0.660706 17.9701C0.65708 17.9383 0.649827 17.9066 0.6462 17.874C0.630548 17.7164 0.622682 17.5582 0.622629 17.3998V14.7724L3.79579 11.6002ZM15.6453 8.43699L22.6226 13.786V17.3998C22.6239 18.0043 22.5058 18.6031 22.2751 19.1618C22.0444 19.7205 21.7056 20.2281 21.2782 20.6556C20.8508 21.083 20.3431 21.4218 19.7844 21.6525C19.2257 21.8832 18.6269 22.0013 18.0224 22H5.22281C5.08228 22 4.94447 21.9918 4.80757 21.9791C4.67143 21.9668 4.53591 21.9483 4.40141 21.9238C4.34973 21.9148 4.29806 21.9066 4.24638 21.8948H4.24275C4.04903 21.8513 3.85826 21.7956 3.67158 21.728L3.60359 21.7035C3.31796 21.5958 3.04398 21.4594 2.78582 21.2965L15.6453 8.43699ZM8.46396 4.21125C8.63851 4.2098 8.81159 4.24312 8.97312 4.30927C9.13465 4.37543 9.28139 4.47309 9.40477 4.59656C9.52816 4.72003 9.62572 4.86683 9.69176 5.0284C9.7578 5.18998 9.79101 5.36309 9.78944 5.53763C9.79089 5.7121 9.75759 5.88511 9.6915 6.04658C9.6254 6.20805 9.52782 6.35474 9.40445 6.47811C9.28108 6.60149 9.13438 6.69906 8.97291 6.76516C8.81144 6.83126 8.63843 6.86455 8.46396 6.8631C8.28942 6.86468 8.11631 6.83147 7.95474 6.76543C7.79316 6.69938 7.64636 6.60182 7.52289 6.47844C7.39942 6.35506 7.30176 6.20832 7.23561 6.04679C7.16945 5.88526 7.13613 5.71217 7.13758 5.53763C7.13758 4.79692 7.72326 4.21125 8.46396 4.21125ZM8.46396 2.51859C7.66445 2.52217 6.89872 2.84143 6.33346 3.40686C5.7682 3.97229 5.44917 4.73812 5.44583 5.53763C5.44918 6.33698 5.76826 7.10261 6.33357 7.66776C6.89888 8.2329 7.66462 8.55175 8.46396 8.55485C9.26315 8.55151 10.0287 8.23255 10.5938 7.66744C11.1589 7.10232 11.4778 6.33682 11.4812 5.53763C11.4778 4.73827 11.1589 3.97258 10.5939 3.40718C10.0288 2.84177 9.26332 2.52241 8.46396 2.51859ZM5.22281 1.08541e-05H18.0224C18.6268 -0.00130346 19.2255 0.116756 19.7842 0.347415C20.3428 0.578073 20.8504 0.916788 21.2779 1.34412C21.7053 1.77145 22.0441 2.27899 22.2749 2.83759C22.5056 3.3962 22.6238 3.99488 22.6226 4.59928V11.6537L16.0868 6.6428C15.9239 6.51811 15.7213 6.45675 15.5165 6.47008C15.3118 6.48342 15.1189 6.57056 14.9735 6.71533L8.54103 13.1478L4.24457 9.80508C4.08672 9.68291 3.891 9.62002 3.69153 9.62738C3.47892 9.63631 3.27738 9.72462 3.12671 9.87489L0.622629 12.3799V4.59928C0.621433 3.99488 0.739611 3.3962 0.97038 2.83759C1.20115 2.27899 1.53996 1.77145 1.96738 1.34412C2.3948 0.916788 2.9024 0.578073 3.46105 0.347415C4.0197 0.116756 4.61841 -0.00130346 5.22281 1.08541e-05Z" fill="#A3A3A3"/>
    </svg>
    