<svg width="41" height="37" viewBox="0 0 41 37" fill="none" xmlns="http://www.w3.org/2000/svg">
    <path d="M20.5 0C20.5 0 8.128 10.7879 1.214 16.6303C0.993994 16.8239 0.81674 17.0621 0.693737 17.3294C0.570733 17.5967 0.504727 17.8871 0.5 18.1818C0.5 18.7176 0.710714 19.2315 1.08579 19.6103C1.46086 19.9892 1.96957 20.202 2.5 20.202H6.5V34.3434C6.5 34.8792 6.71071 35.3931 7.08579 35.7719C7.46086 36.1508 7.96957 36.3636 8.5 36.3636H14.5C15.0304 36.3636 15.5391 36.1508 15.9142 35.7719C16.2893 35.3931 16.5 34.8792 16.5 34.3434V26.2626H24.5V34.3434C24.5 34.8792 24.7107 35.3931 25.0858 35.7719C25.4609 36.1508 25.9696 36.3636 26.5 36.3636H32.5C33.0304 36.3636 33.5391 36.1508 33.9142 35.7719C34.2893 35.3931 34.5 34.8792 34.5 34.3434V20.202H38.5C39.0304 20.202 39.5391 19.9892 39.9142 19.6103C40.2893 19.2315 40.5 18.7176 40.5 18.1818C40.4972 17.8815 40.4268 17.5857 40.2941 17.3169C40.1614 17.0481 39.9698 16.8133 39.734 16.6303C32.868 10.7879 20.5 0 20.5 0Z" fill="#00B0F0"/>
    </svg>
    