<svg width="23" height="20" viewBox="0 0 23 20" fill="none" xmlns="http://www.w3.org/2000/svg">
    <path d="M11.6226 0C11.6226 0 4.81796 5.93333 1.01526 9.14667C0.894255 9.25316 0.796766 9.38416 0.729114 9.53117C0.661462 9.67818 0.625159 9.83791 0.622559 10C0.622559 10.2947 0.738451 10.5773 0.944741 10.7857C1.15103 10.994 1.43082 11.1111 1.72256 11.1111H3.92256V18.8889C3.92256 19.1836 4.03845 19.4662 4.24474 19.6746C4.45103 19.8829 4.73082 20 5.02256 20H8.32256C8.6143 20 8.89409 19.8829 9.10038 19.6746C9.30667 19.4662 9.42256 19.1836 9.42256 18.8889V14.4444H13.8226V18.8889C13.8226 19.1836 13.9385 19.4662 14.1447 19.6746C14.351 19.8829 14.6308 20 14.9226 20H18.2226C18.5143 20 18.7941 19.8829 19.0004 19.6746C19.2067 19.4662 19.3226 19.1836 19.3226 18.8889V11.1111H21.5226C21.8143 11.1111 22.0941 10.994 22.3004 10.7857C22.5067 10.5773 22.6226 10.2947 22.6226 10C22.621 9.8348 22.5823 9.67212 22.5093 9.52427C22.4363 9.37643 22.331 9.2473 22.2013 9.14667C18.425 5.93333 11.6226 0 11.6226 0Z" fill="#ADADAD"/>
    </svg>
    