<svg width="19" height="19" viewBox="0 0 19 19" fill="none" xmlns="http://www.w3.org/2000/svg">
    <path d="M11.992 5.261V1.4C11.992 0.905 11.587 0.5 11.092 0.5H7.49199C6.99699 0.5 6.59199 0.905 6.59199 1.4V5.261C6.59199 5.378 6.63699 5.495 6.72699 5.576L8.97699 7.826C9.15699 8.006 9.43599 8.006 9.61599 7.826L11.866 5.576C11.947 5.495 11.992 5.387 11.992 5.261ZM5.05299 6.8H1.19199C0.696992 6.8 0.291992 7.205 0.291992 7.7V11.3C0.291992 11.795 0.696992 12.2 1.19199 12.2H5.05299C5.16999 12.2 5.28699 12.155 5.36799 12.065L7.61799 9.815C7.79799 9.635 7.79799 9.356 7.61799 9.176L5.36799 6.926C5.28699 6.845 5.17899 6.8 5.05299 6.8ZM6.59199 13.739V17.6C6.59199 18.095 6.99699 18.5 7.49199 18.5H11.092C11.587 18.5 11.992 18.095 11.992 17.6V13.739C11.992 13.622 11.947 13.505 11.857 13.424L9.60699 11.174C9.42699 10.994 9.14799 10.994 8.96799 11.174L6.71799 13.424C6.63699 13.505 6.59199 13.613 6.59199 13.739ZM13.207 6.935L10.957 9.185C10.777 9.365 10.777 9.644 10.957 9.824L13.207 12.074C13.288 12.155 13.405 12.209 13.522 12.209H17.392C17.887 12.209 18.292 11.804 18.292 11.309V7.709C18.292 7.214 17.887 6.809 17.392 6.809H13.531C13.405 6.8 13.297 6.845 13.207 6.935Z" fill="black"/>
    </svg>
    