<svg width="8" height="10" viewBox="0 0 8 10" fill="none" xmlns="http://www.w3.org/2000/svg">
    <path d="M3.91624 0.0415039C1.98354 0.0415039 0.416245 1.55672 0.416245 3.4255C0.416245 5.29429 3.91624 9.0415 3.91624 9.0415C3.91624 9.0415 7.41624 5.29429 7.41624 3.4255C7.41624 1.55672 5.84894 0.0415039 3.91624 0.0415039ZM3.91624 1.92186C4.22561 1.92186 4.52232 2.04064 4.74113 2.25208C4.95995 2.46352 5.08297 2.75032 5.08314 3.04943C5.08314 3.34865 4.9602 3.63562 4.74137 3.8472C4.52253 4.05878 4.22573 4.17765 3.91624 4.17765C3.60676 4.17765 3.30996 4.05878 3.09112 3.8472C2.87229 3.63562 2.74934 3.34865 2.74934 3.04943C2.74952 2.75032 2.87254 2.46352 3.09136 2.25208C3.31017 2.04064 3.60688 1.92186 3.91624 1.92186Z" fill="white"/>
    </svg>
    