<svg width="31" height="31" viewBox="0 0 31 31" fill="none" xmlns="http://www.w3.org/2000/svg">
    <rect x="0.886719" y="0.588867" width="29.9321" height="30" rx="8" fill="#00B0F0"/>
    <path d="M15.8528 7.58887C12.5471 7.58887 9.86635 10.2826 9.86635 13.6049C9.86635 16.9272 15.8528 23.5889 15.8528 23.5889C15.8528 23.5889 21.8392 16.9272 21.8392 13.6049C21.8392 10.2826 19.1585 7.58887 15.8528 7.58887ZM15.8528 10.9317C16.3819 10.9317 16.8894 11.1429 17.2637 11.5188C17.6379 11.8947 17.8483 12.4045 17.8486 12.9363C17.8486 13.4682 17.6384 13.9784 17.2641 14.3546C16.8898 14.7307 16.3821 14.942 15.8528 14.942C15.3234 14.942 14.8158 14.7307 14.4415 14.3546C14.0672 13.9784 13.8569 13.4682 13.8569 12.9363C13.8572 12.4045 14.0676 11.8947 14.4419 11.5188C14.8161 11.1429 15.3236 10.9317 15.8528 10.9317Z" fill="white"/>
    </svg>
    