<svg width="13" height="17" viewBox="0 0 13 17" fill="none" xmlns="http://www.w3.org/2000/svg">
    <path d="M6.87435 0.643799C3.56798 0.643799 0.886719 3.33751 0.886719 6.6598C0.886719 9.98209 6.87435 16.6438 6.87435 16.6438C6.87435 16.6438 12.862 9.98209 12.862 6.6598C12.862 3.33751 10.1807 0.643799 6.87435 0.643799ZM6.87435 3.98666C7.40359 3.98666 7.91118 4.19781 8.28552 4.57371C8.65987 4.94961 8.87032 5.45948 8.87062 5.99123C8.87062 6.52318 8.6603 7.03334 8.28593 7.40948C7.91155 7.78563 7.40379 7.99694 6.87435 7.99694C6.3449 7.99694 5.83714 7.78563 5.46277 7.40948C5.08839 7.03334 4.87807 6.52318 4.87807 5.99123C4.87837 5.45948 5.08883 4.94961 5.46317 4.57371C5.83751 4.19781 6.3451 3.98666 6.87435 3.98666Z" fill="#00B0F0"/>
    </svg>
    