<svg width="17" height="17" viewBox="0 0 17 17" fill="none" xmlns="http://www.w3.org/2000/svg">
<path d="M15.6151 11.957L12.0796 8.42143L15.6151 4.8859C16.084 4.41706 16.3474 3.78117 16.3474 3.11813C16.3474 2.45509 16.084 1.81921 15.6151 1.35036C15.1463 0.881524 14.5104 0.618132 13.8474 0.618131C13.1843 0.618132 12.5484 0.881524 12.0796 1.35036L8.60682 4.94865L5.00853 1.35036C4.53969 0.881524 3.90381 0.618132 3.24077 0.618131C2.57772 0.618132 1.94184 0.881524 1.473 1.35036C1.00416 1.81921 0.740767 2.45509 0.740767 3.11813C0.740767 3.78117 1.00416 4.41706 1.473 4.8859L5.13404 8.42143L1.473 11.957C1.00416 12.4258 0.740767 13.0617 0.740767 13.7247C0.740768 14.3878 1.00416 15.0237 1.473 15.4925C1.94184 15.9613 2.57773 16.2247 3.24077 16.2247C3.90381 16.2247 4.53969 15.9613 5.00853 15.4925L8.60682 11.8942L12.0796 15.4925C12.5484 15.9613 13.1843 16.2247 13.8474 16.2247C14.5104 16.2247 15.1463 15.9613 15.6151 15.4925C16.084 15.0237 16.3474 14.3878 16.3474 13.7247C16.3474 13.0617 16.084 12.4258 15.6151 11.957Z" fill="white"/>
</svg>
