<svg width="16" height="20" viewBox="0 0 16 20" fill="none" xmlns="http://www.w3.org/2000/svg">
    <path d="M7.20958 20.0001C8.25494 20.0001 9.11022 19.1741 9.11022 18.1646H5.30894C5.30894 19.1741 6.15473 20.0001 7.20958 20.0001ZM12.9115 14.4937V9.90513C12.9115 7.08772 11.353 4.72918 8.63506 4.10513V3.48108C8.63506 2.71937 7.99835 2.10449 7.20958 2.10449C6.42082 2.10449 5.7841 2.71937 5.7841 3.48108V4.10513C3.05668 4.72918 1.50766 7.07855 1.50766 9.90513V14.4937L0.281748 15.6776C-0.316953 16.2558 0.101187 17.2469 0.946972 17.2469H13.4627C14.3085 17.2469 14.7361 16.2558 14.1374 15.6776L12.9115 14.4937Z" fill="black"/>
    <ellipse cx="12.1555" cy="3.9768" rx="3.84449" ry="3.9768" fill="#00B0F0"/>
    </svg>
    