<svg width="19" height="15" viewBox="0 0 19 15" fill="none" xmlns="http://www.w3.org/2000/svg">
    <path fill-rule="evenodd" clip-rule="evenodd" d="M4.51629 11.7371C4.31914 11.7013 4.10958 11.6813 3.88672 11.6813C2.24529 11.6813 1.32858 12.7771 0.977147 13.3232C0.920147 13.417 0.88972 13.5319 0.88972 13.6507C0.88972 13.6539 0.889717 13.6572 0.889289 13.6599C0.886717 13.8605 0.886719 14.1262 0.886719 14.3925C0.886719 14.6918 1.07872 14.9347 1.31529 14.9347H4.389C4.34057 14.7623 4.31529 14.579 4.31529 14.3925C4.31529 13.7754 4.31529 13.0401 4.317 12.6058C4.317 12.2967 4.38686 11.9958 4.51629 11.7371ZM14.1724 14.9347H5.601C5.48743 14.9347 5.37815 14.8778 5.298 14.7758C5.21743 14.6744 5.17243 14.5362 5.17243 14.3925C5.17243 13.777 5.17243 13.045 5.17415 12.609C5.17415 12.6079 5.17415 12.6069 5.17415 12.6058C5.17415 12.4811 5.20843 12.3607 5.27058 12.2642C5.80243 11.4958 7.40958 9.51229 9.88672 9.51229C12.6904 9.51229 14.0983 11.492 14.529 12.2387C14.5766 12.3303 14.601 12.4339 14.601 12.5396V14.3925C14.601 14.5362 14.556 14.6744 14.4754 14.7758C14.3953 14.8778 14.286 14.9347 14.1724 14.9347ZM15.3844 14.9347H18.4581C18.6947 14.9347 18.8867 14.6918 18.8867 14.3925V13.6501C18.8867 13.5303 18.8554 13.4143 18.798 13.3194C18.4449 12.7771 17.5277 11.6813 15.8867 11.6813C15.6754 11.6813 15.4761 11.6992 15.2884 11.7317C15.3994 11.9773 15.4581 12.256 15.4581 12.5407V14.3925C15.4581 14.579 15.4329 14.7623 15.3844 14.9347ZM3.88672 5.17436C2.70386 5.17436 1.74386 6.38898 1.74386 7.88557C1.74386 9.38215 2.70386 10.5968 3.88672 10.5968C5.06958 10.5968 6.02958 9.38215 6.02958 7.88557C6.02958 6.38898 5.06958 5.17436 3.88672 5.17436ZM15.8867 5.17436C14.7039 5.17436 13.7439 6.38898 13.7439 7.88557C13.7439 9.38215 14.7039 10.5968 15.8867 10.5968C17.0696 10.5968 18.0296 9.38215 18.0296 7.88557C18.0296 6.38898 17.0696 5.17436 15.8867 5.17436ZM9.88672 0.836426C8.23115 0.836426 6.88672 2.53744 6.88672 4.63212C6.88672 6.7268 8.23115 8.42781 9.88672 8.42781C11.5423 8.42781 12.8867 6.7268 12.8867 4.63212C12.8867 2.53744 11.5423 0.836426 9.88672 0.836426Z" fill="#00B0F0"/>
    </svg>
    