<svg width="20" height="15" viewBox="0 0 20 15" fill="none" xmlns="http://www.w3.org/2000/svg">
    <path d="M19.5977 7.15C18.0381 3.59167 14.5231 0 10.1689 0C5.81478 0 2.29978 3.59167 0.740195 7.15C0.693228 7.26006 0.668945 7.37935 0.668945 7.5C0.668945 7.62065 0.693228 7.73994 0.740195 7.85C2.29978 11.4083 5.81478 15 10.1689 15C14.5231 15 18.0381 11.4083 19.5977 7.85C19.6447 7.73994 19.6689 7.62065 19.6689 7.5C19.6689 7.37935 19.6447 7.26006 19.5977 7.15ZM10.1689 11.6667C9.38606 11.6667 8.62076 11.4223 7.96981 10.9645C7.31887 10.5066 6.81152 9.85587 6.51192 9.09451C6.21233 8.33315 6.13394 7.49538 6.28667 6.68712C6.4394 5.87887 6.8164 5.13644 7.36998 4.55372C7.92356 3.971 8.62887 3.57417 9.39671 3.41339C10.1646 3.25262 10.9604 3.33514 11.6837 3.6505C12.407 3.96587 13.0252 4.49992 13.4602 5.18512C13.8951 5.87033 14.1273 6.67591 14.1273 7.5C14.126 8.60466 13.7086 9.6637 12.9665 10.4448C12.2245 11.2259 11.2184 11.6653 10.1689 11.6667Z" fill="black"/>
    <path d="M10.1689 10C11.4806 10 12.5439 8.88071 12.5439 7.5C12.5439 6.11929 11.4806 5 10.1689 5C8.85727 5 7.79395 6.11929 7.79395 7.5C7.79395 8.88071 8.85727 10 10.1689 10Z" fill="black"/>
    </svg>
    