<svg width="21" height="21" viewBox="0 0 21 21" fill="none" xmlns="http://www.w3.org/2000/svg">
<path d="M13.0441 17.9219L13.0441 12.9219L18.0441 12.9219C18.7071 12.9219 19.343 12.6585 19.8118 12.1896C20.2807 11.7208 20.5441 11.0849 20.5441 10.4219C20.5441 9.75883 20.2807 9.12295 19.8118 8.65411C19.343 8.18527 18.7071 7.92187 18.0441 7.92187L13.0441 8.01062L13.0441 2.92187C13.0441 2.25883 12.7807 1.62295 12.3118 1.15411C11.843 0.685267 11.2071 0.421875 10.5441 0.421875C9.88103 0.421875 9.24514 0.685267 8.7763 1.15411C8.30746 1.62295 8.04407 2.25883 8.04407 2.92187L8.13282 8.01062L3.04407 7.92187C2.38102 7.92187 1.74514 8.18527 1.2763 8.65411C0.807458 9.12295 0.544067 9.75883 0.544067 10.4219C0.544067 11.0849 0.807458 11.7208 1.2763 12.1896C1.74514 12.6585 2.38102 12.9219 3.04407 12.9219L8.13282 12.9219L8.04407 17.9219C8.04407 18.5849 8.30746 19.2208 8.7763 19.6896C9.24514 20.1585 9.88103 20.4219 10.5441 20.4219C11.2071 20.4219 11.843 20.1585 12.3118 19.6896C12.7807 19.2208 13.0441 18.5849 13.0441 17.9219Z" fill="white"/>
</svg>
