<svg width="45" height="46" viewBox="0 0 45 46" fill="none" xmlns="http://www.w3.org/2000/svg">
    <path d="M29.25 11.9513V2.29883C29.25 1.06133 28.2375 0.0488281 27 0.0488281H18C16.7625 0.0488281 15.75 1.06133 15.75 2.29883V11.9513C15.75 12.2438 15.8625 12.5363 16.0875 12.7388L21.7125 18.3638C22.1625 18.8138 22.86 18.8138 23.31 18.3638L28.935 12.7388C29.1375 12.5363 29.25 12.2663 29.25 11.9513ZM11.9025 15.7988H2.25C1.0125 15.7988 0 16.8113 0 18.0488V27.0488C0 28.2863 1.0125 29.2988 2.25 29.2988H11.9025C12.195 29.2988 12.4875 29.1863 12.69 28.9613L18.315 23.3363C18.765 22.8863 18.765 22.1888 18.315 21.7388L12.69 16.1138C12.4875 15.9113 12.2175 15.7988 11.9025 15.7988ZM15.75 33.1463V42.7988C15.75 44.0363 16.7625 45.0488 18 45.0488H27C28.2375 45.0488 29.25 44.0363 29.25 42.7988V33.1463C29.25 32.8538 29.1375 32.5613 28.9125 32.3588L23.2875 26.7338C22.8375 26.2838 22.14 26.2838 21.69 26.7338L16.065 32.3588C15.8625 32.5613 15.75 32.8313 15.75 33.1463ZM32.2875 16.1363L26.6625 21.7613C26.2125 22.2113 26.2125 22.9088 26.6625 23.3588L32.2875 28.9838C32.49 29.1863 32.7825 29.3213 33.075 29.3213H42.75C43.9875 29.3213 45 28.3088 45 27.0713V18.0713C45 16.8338 43.9875 15.8213 42.75 15.8213H33.0975C32.7825 15.7988 32.5125 15.9113 32.2875 16.1363Z" fill="#00B0F0"/>
    </svg>
    