<svg width="19" height="21" viewBox="0 0 19 21" fill="none" xmlns="http://www.w3.org/2000/svg">
<path d="M0.758721 7.21912C0.702502 6.10266 0.997848 4.99984 1.59551 4.07518L1.75119 3.84783L1.76406 3.83537L1.87214 3.70854L1.98537 3.57905L1.99824 3.5657C2.2144 3.34409 2.45373 3.14918 2.71192 2.98275L2.78483 2.93658L2.85775 2.89375L3.02931 2.79496C3.09879 2.76204 3.17427 2.72288 3.24375 2.68995C3.29436 2.67037 3.34497 2.64456 3.39558 2.62498C3.4908 2.58493 3.59202 2.54577 3.69324 2.51284C3.72755 2.49593 3.76358 2.48258 3.80046 2.47368L3.84142 2.45721L3.88624 2.44075C4.34774 2.3028 4.8221 2.20757 5.30161 2.16396L5.25195 2.16978V1.17514C5.25195 0.776334 5.57365 0.453876 5.97151 0.453876C6.36936 0.453876 6.69195 0.776334 6.69195 1.17514V4.31888C6.69195 4.71769 6.36936 5.04104 5.97151 5.04104C5.57365 5.04104 5.25195 4.71769 5.25195 4.31888L5.252 3.59207C4.77965 3.63936 4.31584 3.75689 3.87595 3.94305C2.74079 4.45373 2.1994 5.42626 2.1481 6.96747L2.14406 7.21556V7.6027H17.3605V7.20577C17.3897 6.49199 17.2464 5.78178 16.9428 5.14009C16.6511 4.59097 16.1845 4.16466 15.6209 3.93326C15.262 3.77876 14.8861 3.67097 14.5019 3.61216L14.252 3.58178L14.252 4.31526C14.252 4.71234 13.9298 5.03396 13.532 5.03396C13.1342 5.03396 12.812 4.71234 12.812 4.31526L12.812 3.52778L6.69896 3.52832V2.0981L12.812 2.09778L12.812 1.17091C12.8084 0.773823 13.1288 0.449506 13.5266 0.446794C13.9244 0.444116 14.2493 0.763042 14.252 1.16013L14.2526 2.16425C14.6019 2.19872 14.9485 2.25967 15.2895 2.34675L15.6286 2.44253C15.6561 2.44787 15.6766 2.45499 15.7144 2.46834C15.7521 2.48169 15.7839 2.49504 15.8216 2.5075C15.922 2.54043 16.0155 2.57959 16.1124 2.61964C16.1682 2.63922 16.2196 2.66503 16.2634 2.68461C16.3389 2.71754 16.4161 2.7567 16.4778 2.78962C16.5413 2.82255 16.6022 2.85904 16.6554 2.88841C16.7086 2.91778 16.7497 2.95071 16.7944 2.97741C16.9886 3.1029 17.1733 3.24441 17.3457 3.40006L17.514 3.56036L17.5218 3.57371L17.6394 3.69853L17.7499 3.83003L17.7559 3.84249C18.4029 4.73713 18.7508 5.82364 18.752 6.93681L18.745 7.21556V7.6027H18.752V15.3569C18.752 18.7384 16.8635 20.4468 13.1211 20.4468H6.37427C2.64037 20.4468 0.751953 18.7384 0.751953 15.3569V7.6027H0.758721V7.21912ZM13.8678 14.6931C13.4043 14.6931 13.0352 15.0737 13.0352 15.5428C13.0438 16.012 13.4129 16.3926 13.8678 16.3926C14.3228 16.3926 14.6919 16.012 14.6919 15.5428C14.6919 15.0737 14.3228 14.6931 13.8678 14.6931ZM9.75624 14.6842C9.29273 14.6931 8.92363 15.0737 8.92363 15.5428C8.92363 16.012 9.30131 16.3926 9.75624 16.3926C10.2112 16.3926 10.5803 16.012 10.5803 15.534C10.5717 15.0737 10.2112 14.6931 9.75624 14.6842ZM5.63607 14.6842C5.17255 14.6842 4.80346 15.0737 4.81204 15.5428C4.81204 16.012 5.18114 16.3926 5.63607 16.3926C6.09101 16.3926 6.46011 16.0031 6.46011 15.534C6.46011 15.0648 6.09101 14.6842 5.63607 14.6842ZM13.8678 11.0638C13.4043 11.0638 13.0438 11.4444 13.0438 11.9136C13.0438 12.3827 13.4129 12.7633 13.8678 12.7633C14.3228 12.7633 14.6919 12.3827 14.6919 11.9136C14.6919 11.4444 14.3228 11.0638 13.8678 11.0638ZM9.75624 11.0549C9.29273 11.0638 8.92363 11.4444 8.92363 11.9136C8.92363 12.3827 9.30131 12.7633 9.75624 12.7633C10.2112 12.7633 10.5803 12.3827 10.5803 11.9047C10.5803 11.4444 10.2112 11.0638 9.75624 11.0549ZM5.64466 11.0549C5.18114 11.0549 4.81204 11.4444 4.81204 11.9136C4.81204 12.3827 5.18114 12.7633 5.63607 12.7633C6.09959 12.7633 6.46869 12.3739 6.46011 11.9047C6.46011 11.4356 6.09101 11.0549 5.64466 11.0549Z" fill="#00B0F0"/>
</svg>
