<svg width="17" height="21" viewBox="0 0 17 21" fill="none" xmlns="http://www.w3.org/2000/svg">
    <path d="M13.7764 7.5V5.5C13.7764 2.7 11.5764 0.5 8.77637 0.5C5.97637 0.5 3.77637 2.7 3.77637 5.5V7.5C2.07637 7.5 0.776367 8.8 0.776367 10.5V17.5C0.776367 19.2 2.07637 20.5 3.77637 20.5H13.7764C15.4764 20.5 16.7764 19.2 16.7764 17.5V10.5C16.7764 8.8 15.4764 7.5 13.7764 7.5ZM5.77637 5.5C5.77637 3.8 7.07637 2.5 8.77637 2.5C10.4764 2.5 11.7764 3.8 11.7764 5.5V7.5H5.77637V5.5ZM9.77637 15.5C9.77637 16.1 9.37637 16.5 8.77637 16.5C8.17637 16.5 7.77637 16.1 7.77637 15.5V12.5C7.77637 11.9 8.17637 11.5 8.77637 11.5C9.37637 11.5 9.77637 11.9 9.77637 12.5V15.5Z" fill="black"/>
    </svg>
    