<svg width="19" height="21" viewBox="0 0 19 21" fill="none" xmlns="http://www.w3.org/2000/svg">
    <path fill-rule="evenodd" clip-rule="evenodd" d="M11.2219 20.011C10.4412 20.1638 9.26136 20.1811 8.45682 20.0398C8.25867 20.0051 8.05278 19.8182 7.99663 19.6225L7.47479 17.8016C7.41864 17.6058 7.23211 17.3643 7.05816 17.2625L5.16736 16.1557C4.99341 16.0539 4.69458 16.014 4.50062 16.0667L2.71954 16.5507C2.52559 16.6034 2.2629 16.5196 2.13349 16.3642C1.63585 15.7666 1.07045 14.771 0.81131 14.0572C0.741926 13.8661 0.798402 13.5919 0.93717 13.4446L2.27645 12.0285C2.41522 11.8816 2.52817 11.5968 2.52817 11.3929V9.17896C2.52817 8.97539 2.41296 8.69296 2.27096 8.54896L0.93588 7.19537C0.793884 7.05137 0.735149 6.77941 0.804533 6.58828C0.866495 6.41777 1.10014 5.90985 1.38091 5.41698C1.6678 4.91331 1.99214 4.44499 2.11477 4.29673C2.24353 4.14063 2.50655 4.05324 2.70179 4.10201L4.60712 4.57655C4.80204 4.62499 5.10185 4.58179 5.27579 4.48001L7.16627 3.37285C7.34022 3.27107 7.52384 3.02856 7.5758 2.83187L8.0573 1.0093C8.10926 0.812611 8.31224 0.625413 8.51039 0.591376C9.23812 0.467014 10.3589 0.467996 11.106 0.60414C11.3035 0.64014 11.5062 0.828975 11.5581 1.02566L12.0354 2.83187C12.0874 3.02856 12.271 3.27107 12.4446 3.37285L14.3355 4.48001C14.5094 4.58179 14.8082 4.62171 15.0022 4.56902L16.7833 4.08499C16.9772 4.0323 17.2399 4.11575 17.3693 4.27121C17.8883 4.89433 18.4653 5.92294 18.7283 6.66977C18.7957 6.86188 18.7354 7.1345 18.5934 7.2785L17.3403 8.54896C17.1983 8.69296 17.0831 8.97539 17.0831 9.17896V11.3929C17.0831 11.5968 17.1983 11.8789 17.3403 12.0229L18.6121 13.3127C18.7541 13.4567 18.8151 13.7297 18.7483 13.9218C18.6744 14.1345 18.4256 14.685 18.1219 15.2187C17.835 15.7224 17.5107 16.1907 17.388 16.3393C17.259 16.4951 16.9966 16.5792 16.8026 16.5265L15.1106 16.0667C14.9163 16.014 14.6178 16.0539 14.4439 16.1557L12.5531 17.2625C12.3791 17.3643 12.1958 17.6068 12.1439 17.8035L11.6734 19.5845C11.6214 19.7812 11.419 19.9723 11.2219 20.011ZM5.40778 10.3179C5.40778 7.8738 7.3641 5.88956 9.77416 5.88956C12.1839 5.88956 14.1405 7.8738 14.1405 10.3179C14.1405 12.7616 12.1839 14.7458 9.77416 14.7458C7.3641 14.7458 5.40778 12.7616 5.40778 10.3179Z" fill="black"/>
    </svg>
    