<svg width="19" height="23" viewBox="0 0 19 23" fill="none" xmlns="http://www.w3.org/2000/svg">
    <path d="M15.2939 0.878662H4.04395C2.13145 0.878662 0.668945 2.30301 0.668945 4.16562V10.7395H10.3439L7.75645 8.21953C7.30645 7.78127 7.30645 7.12388 7.75645 6.68562C8.20645 6.24736 8.88144 6.24736 9.33144 6.68562L13.8314 11.0682C14.2814 11.5065 14.2814 12.1639 13.8314 12.6021L9.33144 16.9848C8.88144 17.423 8.20645 17.423 7.75645 16.9848C7.30645 16.5465 7.30645 15.8891 7.75645 15.4508L10.3439 12.9308H0.668945V19.5047C0.668945 21.3674 2.13145 22.7917 4.04395 22.7917H15.2939C17.2064 22.7917 18.6689 21.3674 18.6689 19.5047V4.16562C18.6689 2.30301 17.2064 0.878662 15.2939 0.878662Z" fill="black"/>
    </svg>
    