<svg width="23" height="20" viewBox="0 0 23 20" fill="none" xmlns="http://www.w3.org/2000/svg">
    <path d="M11.5 0C11.5 0 4.6954 5.93333 0.8927 9.14667C0.771697 9.25316 0.674207 9.38416 0.606555 9.53117C0.538903 9.67818 0.5026 9.83791 0.5 10C0.5 10.2947 0.615892 10.5773 0.822183 10.7857C1.02847 10.994 1.30826 11.1111 1.6 11.1111H3.8V18.8889C3.8 19.1836 3.91589 19.4662 4.12218 19.6746C4.32847 19.8829 4.60826 20 4.9 20H8.2C8.49174 20 8.77153 19.8829 8.97782 19.6746C9.18411 19.4662 9.3 19.1836 9.3 18.8889V14.4444H13.7V18.8889C13.7 19.1836 13.8159 19.4662 14.0222 19.6746C14.2285 19.8829 14.5083 20 14.8 20H18.1C18.3917 20 18.6715 19.8829 18.8778 19.6746C19.0841 19.4662 19.2 19.1836 19.2 18.8889V11.1111H21.4C21.6917 11.1111 21.9715 10.994 22.1778 10.7857C22.3841 10.5773 22.5 10.2947 22.5 10C22.4985 9.8348 22.4597 9.67212 22.3867 9.52427C22.3137 9.37643 22.2084 9.2473 22.0787 9.14667C18.3024 5.93333 11.5 0 11.5 0Z" fill="#00B0F0"/>
    </svg>
    