<svg width="26" height="22" viewBox="0 0 26 22" fill="none" xmlns="http://www.w3.org/2000/svg">
    <path d="M21.8978 12.1846C21.4067 11.9746 20.8578 12.1496 20.5689 12.6046L19.0956 15.0545C19.0089 15.1945 18.8644 15.1945 18.7778 15.0545L17.3044 12.6046C17.0156 12.1496 16.4667 11.9746 15.9756 12.1846C15.3978 12.4296 14.9067 12.6746 14.4733 12.9196C14.2711 13.0246 14.2711 13.3746 14.4733 13.5146C16.2356 14.7395 17.1311 16.0694 17.4489 18.4493C17.4778 18.6243 17.5933 18.7293 17.7089 18.7293H25.3067C25.6822 18.7293 26 18.4143 26 18.0294C26 14.6345 24.9311 13.5146 21.8978 12.1846ZM17.68 1.37009C14.3867 1.47508 14.4444 5.91989 15.6578 8.61477C15.8311 8.99975 16.12 9.41973 16.4089 9.69972C16.64 9.90971 16.9289 10.0147 17.2178 10.0147C17.2756 10.0147 17.3333 9.97971 17.3622 9.94471C17.7378 10.4347 18.2867 10.9597 18.9511 10.9597H18.98C19.5289 10.9597 20.0778 10.6097 20.5689 9.94471C20.5978 9.97971 20.6556 9.97971 20.7133 9.97971C20.9733 9.97971 21.2044 9.90971 21.4356 9.73472C21.7244 9.48973 21.9844 9.10475 22.1867 8.82476C24.4978 5.21992 22.1289 -2.12976 17.68 1.37009ZM21.4356 4.79994C21.5222 5.6049 21.2622 7.00484 20.8867 8.33478C20.3667 9.55973 19.5867 10.3297 19.0089 10.2597C17.8822 10.1547 17.16 8.43978 17.16 8.40478C16.8133 7.17983 16.5244 5.95489 16.5244 5.5699C16.5244 5.49991 16.5822 5.42991 16.64 5.39491C17.6222 4.97493 18.2289 3.88998 18.4311 3.435C18.4889 3.33 18.6044 3.295 18.6622 3.4C19.2978 4.23996 20.8867 4.55495 21.32 4.65994C21.3778 4.62494 21.4356 4.69494 21.4356 4.79994ZM12.4222 13.8995C11.96 13.6546 11.4111 13.8645 11.1222 14.3895L9.53333 17.4344C9.47556 17.5394 9.33111 17.5394 9.30222 17.3994L8.63778 14.7395C8.60889 14.6345 8.63778 14.4945 8.69556 14.4245L9.18667 13.8295C9.30222 13.7245 9.21556 13.4796 9.07111 13.4796H7.33778C7.19333 13.4796 7.10667 13.6895 7.22222 13.8295L7.71333 14.4245C7.77111 14.4945 7.8 14.6345 7.77111 14.7395L7.10667 17.3994C7.07778 17.5394 6.93333 17.5394 6.87556 17.4344L5.28667 14.3895C4.99778 13.8645 4.47778 13.6546 3.98667 13.8995C1.04 15.3695 0 16.6644 0 20.4443C0 20.8992 0.288889 21.2492 0.664445 21.2492H15.7444C16.12 21.2492 16.4089 20.8992 16.4089 20.4443C16.4089 16.6644 15.34 15.3695 12.4222 13.8995ZM8.20445 12.3246C12.0756 12.3246 14.0978 1.65007 8.20445 1.54508C2.31111 1.68507 4.33333 12.3246 8.20445 12.3246Z" fill="#A2A2A2"/>
    </svg>
    