<svg width="31" height="20" viewBox="0 0 31 20" fill="none" xmlns="http://www.w3.org/2000/svg">
    <path fill-rule="evenodd" clip-rule="evenodd" d="M6.25092 14.8086C5.9114 14.7603 5.55048 14.7333 5.16667 14.7333C2.33976 14.7333 0.760975 16.2102 0.155737 16.9461C0.0575703 17.0725 0.00516946 17.2274 0.00516946 17.3875C0.00516946 17.3918 0.00516423 17.3962 0.00442614 17.3999C-2.43273e-06 17.6703 0 18.0283 0 18.3871C0 18.7905 0.330667 19.1179 0.738095 19.1179H6.03171C5.94831 18.8855 5.90476 18.6385 5.90476 18.3871C5.90476 17.5555 5.90476 16.5646 5.90771 15.9793C5.90771 15.5627 6.02802 15.1571 6.25092 14.8086ZM22.881 19.1179H8.11905C7.92345 19.1179 7.73524 19.0412 7.59721 18.9038C7.45845 18.7672 7.38095 18.5808 7.38095 18.3871C7.38095 17.5577 7.38095 16.5712 7.3839 15.9836C7.3839 15.9822 7.3839 15.9807 7.3839 15.9793C7.3839 15.8112 7.44296 15.649 7.54998 15.5189C8.46595 14.4834 11.2338 11.8102 15.5 11.8102C20.3286 11.8102 22.7533 14.4783 23.495 15.4845C23.577 15.608 23.619 15.7476 23.619 15.8901V18.3871C23.619 18.5808 23.5415 18.7672 23.4028 18.9038C23.2648 19.0412 23.0765 19.1179 22.881 19.1179ZM24.9683 19.1179H30.2619C30.6693 19.1179 31 18.7905 31 18.3871V17.3867C31 17.2252 30.9461 17.0688 30.8472 16.941C30.239 16.2102 28.6595 14.7333 25.8333 14.7333C25.4695 14.7333 25.1262 14.7574 24.803 14.8013C24.9941 15.1323 25.0952 15.5079 25.0952 15.8916V18.3871C25.0952 18.6385 25.0517 18.8855 24.9683 19.1179ZM5.16667 5.96407C3.12952 5.96407 1.47619 7.601 1.47619 9.61792C1.47619 11.6348 3.12952 13.2718 5.16667 13.2718C7.20381 13.2718 8.85714 11.6348 8.85714 9.61792C8.85714 7.601 7.20381 5.96407 5.16667 5.96407ZM25.8333 5.96407C23.7962 5.96407 22.1429 7.601 22.1429 9.61792C22.1429 11.6348 23.7962 13.2718 25.8333 13.2718C27.8705 13.2718 29.5238 11.6348 29.5238 9.61792C29.5238 7.601 27.8705 5.96407 25.8333 5.96407ZM15.5 0.11792C12.6487 0.11792 10.3333 2.41034 10.3333 5.2333C10.3333 8.05627 12.6487 10.3487 15.5 10.3487C18.3513 10.3487 20.6667 8.05627 20.6667 5.2333C20.6667 2.41034 18.3513 0.11792 15.5 0.11792Z" fill="#A3A3A3"/>
    </svg>
    