<svg width="23" height="15" viewBox="0 0 23 15" fill="none" xmlns="http://www.w3.org/2000/svg">
<path fill-rule="evenodd" clip-rule="evenodd" d="M5.18809 11.1781C4.94714 11.1438 4.691 11.1247 4.41862 11.1247C2.41243 11.1247 1.292 12.1728 0.862476 12.695C0.79281 12.7847 0.755622 12.8947 0.755622 13.0082C0.755622 13.0114 0.755618 13.0145 0.755094 13.0171C0.751951 13.2089 0.751953 13.4631 0.751953 13.7177C0.751953 14.004 0.98662 14.2363 1.27576 14.2363H5.03252C4.97333 14.0714 4.94243 13.8961 4.94243 13.7177C4.94243 13.1275 4.94243 12.4243 4.94452 12.0089C4.94452 11.7133 5.0299 11.4254 5.18809 11.1781ZM16.99 14.2363H6.51386C6.37505 14.2363 6.24148 14.1819 6.14352 14.0844C6.04505 13.9874 5.99005 13.8551 5.99005 13.7177C5.99005 13.1291 5.99005 12.429 5.99214 12.012C5.99214 12.011 5.99214 12.0099 5.99214 12.0089C5.99214 11.8896 6.03405 11.7745 6.11 11.6822C6.76005 10.9473 8.72433 9.05021 11.752 9.05021C15.1787 9.05021 16.8994 10.9437 17.4259 11.6578C17.484 11.7454 17.5139 11.8445 17.5139 11.9456V13.7177C17.5139 13.8551 17.4589 13.9874 17.3604 14.0844C17.2624 14.1819 17.1289 14.2363 16.99 14.2363ZM18.4714 14.2363H22.2281C22.5173 14.2363 22.752 14.004 22.752 13.7177V13.0077C22.752 12.8931 22.7137 12.7821 22.6435 12.6914C22.2119 12.1728 21.091 11.1247 19.0853 11.1247C18.827 11.1247 18.5835 11.1418 18.3541 11.1729C18.4897 11.4078 18.5615 11.6744 18.5615 11.9466V13.7177C18.5615 13.8961 18.5306 14.0714 18.4714 14.2363ZM4.41862 4.90132C2.97291 4.90132 1.79957 6.06301 1.79957 7.49438C1.79957 8.92574 2.97291 10.0874 4.41862 10.0874C5.86433 10.0874 7.03767 8.92574 7.03767 7.49438C7.03767 6.06301 5.86433 4.90132 4.41862 4.90132ZM19.0853 4.90132C17.6396 4.90132 16.4662 6.06301 16.4662 7.49438C16.4662 8.92574 17.6396 10.0874 19.0853 10.0874C20.531 10.0874 21.7043 8.92574 21.7043 7.49438C21.7043 6.06301 20.531 4.90132 19.0853 4.90132ZM11.752 0.752441C9.72848 0.752441 8.08529 2.37932 8.08529 4.38271C8.08529 6.38611 9.72848 8.01299 11.752 8.01299C13.7754 8.01299 15.4186 6.38611 15.4186 4.38271C15.4186 2.37932 13.7754 0.752441 11.752 0.752441Z" fill="#00B0F0"/>
</svg>
