<svg width="31" height="31" viewBox="0 0 31 31" fill="none" xmlns="http://www.w3.org/2000/svg">
    <rect x="0.886719" y="0.70459" width="29.9321" height="30" rx="8" fill="#00B0F0"/>
    <path fill-rule="evenodd" clip-rule="evenodd" d="M9.88564 19.5293C9.66659 19.4937 9.43374 19.4738 9.18612 19.4738C7.36231 19.4738 6.34373 20.5621 5.95326 21.1043C5.88993 21.1974 5.85612 21.3116 5.85612 21.4295C5.85612 21.4327 5.85611 21.436 5.85564 21.4387C5.85278 21.6379 5.85278 21.9017 5.85278 22.1661C5.85278 22.4634 6.06612 22.7046 6.32897 22.7046H9.74421C9.6904 22.5334 9.66231 22.3514 9.66231 22.1661C9.66231 21.5534 9.66231 20.8232 9.66421 20.3919C9.66421 20.085 9.74183 19.7861 9.88564 19.5293ZM20.6147 22.7046H11.0909C10.9647 22.7046 10.8433 22.6481 10.7542 22.5468C10.6647 22.4461 10.6147 22.3088 10.6147 22.1661C10.6147 21.555 10.6147 20.8281 10.6166 20.3951C10.6166 20.3941 10.6166 20.393 10.6166 20.3919C10.6166 20.2681 10.6547 20.1485 10.7237 20.0527C11.3147 19.2897 13.1004 17.32 15.8528 17.32C18.968 17.32 20.5323 19.2859 21.0109 20.0274C21.0637 20.1184 21.0909 20.2212 21.0909 20.3262V22.1661C21.0909 22.3088 21.0409 22.4461 20.9514 22.5468C20.8623 22.6481 20.7409 22.7046 20.6147 22.7046ZM21.9614 22.7046H25.3766C25.6395 22.7046 25.8528 22.4634 25.8528 22.1661V21.429C25.8528 21.31 25.818 21.1947 25.7542 21.1005C25.3618 20.5621 24.3428 19.4738 22.5194 19.4738C22.2847 19.4738 22.0633 19.4916 21.8547 19.5239C21.978 19.7678 22.0433 20.0446 22.0433 20.3273V22.1661C22.0433 22.3514 22.0152 22.5334 21.9614 22.7046ZM9.18612 13.0123C7.87183 13.0123 6.80516 14.2184 6.80516 15.7046C6.80516 17.1907 7.87183 18.3969 9.18612 18.3969C10.5004 18.3969 11.5671 17.1907 11.5671 15.7046C11.5671 14.2184 10.5004 13.0123 9.18612 13.0123ZM22.5194 13.0123C21.2052 13.0123 20.1385 14.2184 20.1385 15.7046C20.1385 17.1907 21.2052 18.3969 22.5194 18.3969C23.8337 18.3969 24.9004 17.1907 24.9004 15.7046C24.9004 14.2184 23.8337 13.0123 22.5194 13.0123ZM15.8528 8.70459C14.0133 8.70459 12.5194 10.3937 12.5194 12.4738C12.5194 14.5539 14.0133 16.2431 15.8528 16.2431C17.6923 16.2431 19.1861 14.5539 19.1861 12.4738C19.1861 10.3937 17.6923 8.70459 15.8528 8.70459Z" fill="white"/>
    </svg>
    