<svg width="19" height="20" viewBox="0 0 19 20" fill="none" xmlns="http://www.w3.org/2000/svg">
    <path d="M19 16.8643V2.61426C19 1.30801 17.9312 0.239258 16.625 0.239258H2.375C1.06875 0.239258 0 1.30801 0 2.61426V16.8643C0 18.1705 1.06875 19.2393 2.375 19.2393H16.625C17.9312 19.2393 19 18.1705 19 16.8643ZM6.4125 12.7436L8.34812 15.3324L11.4119 11.5086C11.6494 11.2118 12.1006 11.2118 12.3381 11.5086L15.8531 15.9024C16.1619 16.2943 15.8887 16.8643 15.39 16.8643H3.5625C3.07562 16.8643 2.79063 16.3061 3.0875 15.9143L5.4625 12.7436C5.7 12.4349 6.175 12.4349 6.4125 12.7436Z" fill="#00B0F0"/>
    </svg>
    