<svg width="17" height="17" viewBox="0 0 17 17" fill="none" xmlns="http://www.w3.org/2000/svg">
    <path d="M11.2867 5.06843V1.63643C11.2867 1.19643 10.9267 0.836426 10.4867 0.836426H7.28672C6.84672 0.836426 6.48672 1.19643 6.48672 1.63643V5.06843C6.48672 5.17243 6.52672 5.27643 6.60672 5.34843L8.60672 7.34843C8.76672 7.50843 9.01472 7.50843 9.17472 7.34843L11.1747 5.34843C11.2467 5.27643 11.2867 5.18043 11.2867 5.06843ZM5.11872 6.43643H1.68672C1.24672 6.43643 0.886719 6.79643 0.886719 7.23643V10.4364C0.886719 10.8764 1.24672 11.2364 1.68672 11.2364H5.11872C5.22272 11.2364 5.32672 11.1964 5.39872 11.1164L7.39872 9.11643C7.55872 8.95643 7.55872 8.70843 7.39872 8.54843L5.39872 6.54843C5.32672 6.47643 5.23072 6.43643 5.11872 6.43643ZM6.48672 12.6044V16.0364C6.48672 16.4764 6.84672 16.8364 7.28672 16.8364H10.4867C10.9267 16.8364 11.2867 16.4764 11.2867 16.0364V12.6044C11.2867 12.5004 11.2467 12.3964 11.1667 12.3244L9.16672 10.3244C9.00672 10.1644 8.75872 10.1644 8.59872 10.3244L6.59872 12.3244C6.52672 12.3964 6.48672 12.4924 6.48672 12.6044ZM12.3667 6.55643L10.3667 8.55643C10.2067 8.71643 10.2067 8.96443 10.3667 9.12443L12.3667 11.1244C12.4387 11.1964 12.5427 11.2444 12.6467 11.2444H16.0867C16.5267 11.2444 16.8867 10.8844 16.8867 10.4444V7.24443C16.8867 6.80443 16.5267 6.44443 16.0867 6.44443H12.6547C12.5427 6.43643 12.4467 6.47643 12.3667 6.55643Z" fill="#00B0F0"/>
    </svg>
    