<svg width="22" height="13" viewBox="0 0 22 13" fill="none" xmlns="http://www.w3.org/2000/svg">
    <path d="M5.188 12L0.356 0.799999H3.156L7.38 10.72H5.732L10.02 0.799999H12.596L7.748 12H5.188ZM17.2111 12.192C16.3151 12.192 15.4565 12.0747 14.6351 11.84C13.8138 11.5947 13.1525 11.28 12.6511 10.896L13.5311 8.944C14.0111 9.28533 14.5765 9.568 15.2271 9.792C15.8885 10.0053 16.5551 10.112 17.2271 10.112C17.7391 10.112 18.1498 10.064 18.4591 9.968C18.7791 9.86133 19.0138 9.71733 19.1631 9.536C19.3125 9.35467 19.3871 9.14667 19.3871 8.912C19.3871 8.61333 19.2698 8.37867 19.0351 8.208C18.8005 8.02667 18.4911 7.88267 18.1071 7.776C17.7231 7.65867 17.2965 7.552 16.8271 7.456C16.3685 7.34933 15.9045 7.22133 15.4351 7.072C14.9765 6.92267 14.5551 6.73067 14.1711 6.496C13.7871 6.26133 13.4725 5.952 13.2271 5.568C12.9925 5.184 12.8751 4.69333 12.8751 4.096C12.8751 3.456 13.0458 2.87467 13.3871 2.352C13.7391 1.81867 14.2618 1.39733 14.9551 1.088C15.6591 0.768 16.5391 0.608 17.5951 0.608C18.2991 0.608 18.9925 0.693333 19.6751 0.863999C20.3578 1.024 20.9605 1.26933 21.4831 1.6L20.6831 3.568C20.1605 3.26933 19.6378 3.05067 19.1151 2.912C18.5925 2.76267 18.0805 2.688 17.5791 2.688C17.0778 2.688 16.6671 2.74667 16.3471 2.864C16.0271 2.98133 15.7978 3.136 15.6591 3.328C15.5205 3.50933 15.4511 3.72267 15.4511 3.968C15.4511 4.256 15.5685 4.49067 15.8031 4.672C16.0378 4.84267 16.3471 4.98133 16.7311 5.088C17.1151 5.19467 17.5365 5.30133 17.9951 5.408C18.4645 5.51467 18.9285 5.63733 19.3871 5.776C19.8565 5.91467 20.2831 6.10133 20.6671 6.336C21.0511 6.57067 21.3605 6.88 21.5951 7.264C21.8405 7.648 21.9631 8.13333 21.9631 8.72C21.9631 9.34933 21.7871 9.92533 21.4351 10.448C21.0831 10.9707 20.5551 11.392 19.8511 11.712C19.1578 12.032 18.2778 12.192 17.2111 12.192Z" fill="#00B0F0"/>
    </svg>
    